<?xml version="1.0" encoding="iso-8859-1"?>
<!-- Generator: Adobe Illustrator 19.0.0, SVG Export Plug-In . SVG Version: 6.00 Build 0)  -->
<svg width="20px" height="20px" version="1.1" id="Capa_1" xmlns="http://www.w3.org/2000/svg" xmlns:xlink="http://www.w3.org/1999/xlink" x="0px" y="0px"
	 viewBox="0 0 512 512" style="enable-background:new 0 0 512 512;" xml:space="preserve">
<g>
	<g>
		<path d="M406,361c49.626,0,90-40.374,90-90c0-33.084-26.916-60-60-60c-10.925,0-21.167,2.949-30,8.072V196c0-8.284-6.716-15-15-15
			h-36.577c-20.687,0-38.639,14.017-43.657,34.086L304.288,241H256V120c16.728,0,144.826,0,165,0c8.284,0,15-6.716,15-15
			C436,47.103,388.897,0,331,0c-10,0-170,0-180,0C93.103,0,46,47.103,46,105c0,8.284,6.716,15,15,15c20.763,0,147.919,0,165,0v121
			h-48.288l-6.478-25.914C166.216,195.017,148.264,181,127.577,181H91c-8.284,0-15,6.716-15,15v150c0,29.78,12.233,56.726,31.886,76
			H61c-24.813,0-45,20.187-45,45s20.187,45,45,45h360c24.813,0,45-20.187,45-45s-20.187-45-45-45h-46.886
			c16.293-15.979,27.48-37.231,30.83-61H406z M406,271c0-16.542,13.458-30,30-30s30,13.458,30,30c0,33.084-26.916,60-60,60V271z
			 M331,30c36.219,0,66.524,25.809,73.493,60h-59.569c-3.354-23.348-14.417-44.236-30.52-60H331z M77.507,90
			C84.476,55.809,114.781,30,151,30h16.596c-16.103,15.764-27.166,36.652-30.52,60H77.507z M167.507,90
			c6.969-34.191,37.274-60,73.493-60s66.524,25.809,73.493,60H167.507z M296.788,271l-4.659,18.638
			c-1.672,6.69-7.657,11.362-14.552,11.362h-73.153c-6.896,0-12.88-4.672-14.552-11.362L185.212,271H296.788z M421,452
			c8.271,0,15,6.729,15,15s-6.729,15-15,15H61c-8.271,0-15-6.729-15-15s6.729-15,15-15C70.91,452,405.303,452,421,452z M376,346
			c0,41.907-33.645,76-75,76H181c-41.355,0-75-34.093-75-76V211h21.577c6.896,0,12.88,4.672,14.552,11.362l18.638,74.552
			c5.018,20.069,22.97,34.086,43.657,34.086h73.153c20.687,0,38.639-14.017,43.657-34.086l18.638-74.552
			c1.672-6.69,7.657-11.362,14.552-11.362H376C376,261.516,376,296.42,376,346z"/>
	</g>
</g>
<g>
</g>
<g>
</g>
<g>
</g>
<g>
</g>
<g>
</g>
<g>
</g>
<g>
</g>
<g>
</g>
<g>
</g>
<g>
</g>
<g>
</g>
<g>
</g>
<g>
</g>
<g>
</g>
<g>
</g>
</svg>
