<svg width="1440" height="817" viewBox="0 0 1440 817" fill="none" xmlns="http://www.w3.org/2000/svg">
<g clip-path="url(#clip0)">
<path d="M936 294.5C1272.5 369 1433.69 125.5 1433.69 125.5L1421 420L776.056 811.593C776.056 811.593 599.5 220 936 294.5Z" fill="#E5835A"/>
<path d="M93.5001 745.5C-98.4999 496 10.2493 299.687 190.749 592.187C371.249 884.687 1488 202 822 612.5C156 1023 -1.4999 745.5 -1.4999 745.5C-1.4999 745.5 285.5 995 93.5001 745.5Z" fill="#E5835A"/>
<path d="M2.50013 819.5C2.50013 819.5 -65.4998 282.168 100.5 660.084C266.5 1038 373 619.404 567 606.5C785 592 758 318 1056.5 355.5C1355 393 1432 121.5 1432 121.5V819.5L69.0002 819.5H2.50013Z" fill="#E5DFD9"/>
</g>
<defs>
<clipPath id="clip0">
<rect width="1440" height="817" fill="white" transform="translate(0.00012207)"/>
</clipPath>
</defs>
</svg>
