<svg  viewBox="0 0 1390 792" fill="none" xmlns="http://www.w3.org/2000/svg">
<g clip-path="url(#clip0_402_4)">
<path d="M936 294.5C1272.5 369 1433.69 125.5 1433.69 125.5L1421 420L776.056 811.593C776.056 811.593 599.5 220 936 294.5Z" fill="#E5835A"/>
<path d="M93.2555 718.216C-98.8422 491.451 9.96227 313.026 190.554 578.873C371.146 844.719 1488.47 224.24 822.126 597.335C155.787 970.432 -1.79289 718.216 -1.79289 718.216C-1.79289 718.216 285.353 944.981 93.2555 718.216Z" fill="#E5835A"/>
<path d="M5.7588 819C5.7588 819 -62.0861 281.668 103.535 659.584C269.157 1037.5 375.414 618.904 568.972 606C786.475 591.5 759.537 317.5 1057.36 355C1355.18 392.5 1432 121 1432 121V819L72.1072 819H5.7588Z" fill="#E5DFD9"/>
<path d="M822.469 608.859C821.531 608.328 820.875 607.812 820.5 607.312C820.125 606.812 819.938 606.281 819.938 605.719C819.938 605.156 820.078 604.531 820.359 603.844C820.641 603.156 820.969 602.359 821.344 601.453C821.438 601.266 821.625 600.891 821.906 600.328C822.188 599.734 822.5 599.047 822.844 598.266C823.219 597.484 823.609 596.672 824.016 595.828C824.453 594.953 824.844 594.125 825.188 593.344C825.562 592.562 825.875 591.891 826.125 591.328C826.406 590.734 826.594 590.344 826.688 590.156C827.094 589.281 827.266 588.516 827.203 587.859C827.172 587.172 827.094 586.531 826.969 585.938C826.875 585.344 826.828 584.766 826.828 584.203C826.859 583.641 827.156 583 827.719 582.281C827.812 582.188 828.016 581.969 828.328 581.625C828.641 581.281 828.969 580.922 829.312 580.547C829.688 580.141 830.031 579.781 830.344 579.469C830.656 579.125 830.844 578.906 830.906 578.812C831.062 578.625 831.5 578.312 832.219 577.875C832.969 577.438 833.875 576.969 834.938 576.469C836 575.938 837.172 575.406 838.453 574.875C839.766 574.312 841.062 573.828 842.344 573.422C843.625 572.984 844.859 572.656 846.047 572.438C847.234 572.219 848.25 572.156 849.094 572.25C849.938 572.344 850.547 572.641 850.922 573.141C851.328 573.641 851.391 574.406 851.109 575.438C850.641 577.125 849.875 578.609 848.812 579.891C847.781 581.172 846.688 582.312 845.531 583.312C844.375 584.312 843.266 585.203 842.203 585.984C841.172 586.766 840.406 587.5 839.906 588.188C843.656 588.312 846.391 588.766 848.109 589.547C849.859 590.328 850.844 591.312 851.062 592.5C851.312 593.688 850.938 595.016 849.938 596.484C848.938 597.922 847.562 599.359 845.812 600.797C844.062 602.203 842.078 603.547 839.859 604.828C837.641 606.078 835.422 607.109 833.203 607.922C831.016 608.734 828.953 609.25 827.016 609.469C825.109 609.688 823.594 609.484 822.469 608.859ZM826.172 597.516C825.578 598.234 825.031 599.031 824.531 599.906C824.031 600.75 823.641 601.594 823.359 602.438C823.109 603.25 823 604.031 823.031 604.781C823.062 605.5 823.297 606.094 823.734 606.562C824.172 607 824.828 607.266 825.703 607.359C826.609 607.453 827.812 607.281 829.312 606.844C832.625 606.094 835.5 605.141 837.938 603.984C840.406 602.828 842.438 601.625 844.031 600.375C845.656 599.094 846.844 597.828 847.594 596.578C848.375 595.328 848.734 594.234 848.672 593.297C848.641 592.328 848.188 591.594 847.312 591.094C846.469 590.594 845.234 590.453 843.609 590.672C841.984 590.859 839.969 591.5 837.562 592.594C835.188 593.656 832.438 595.297 829.312 597.516C828.969 597.797 828.656 597.938 828.375 597.938C828.094 597.906 827.828 597.844 827.578 597.75C827.328 597.625 827.094 597.516 826.875 597.422C826.656 597.328 826.422 597.359 826.172 597.516ZM827.203 593.578C827.203 593.672 827.188 593.812 827.156 594C827.156 594.188 827.156 594.391 827.156 594.609C827.156 594.797 827.156 594.984 827.156 595.172C827.188 595.359 827.203 595.5 827.203 595.594C827.453 595.531 827.969 595.234 828.75 594.703C829.531 594.172 830.469 593.484 831.562 592.641C832.688 591.797 833.906 590.844 835.219 589.781C836.531 588.688 837.844 587.562 839.156 586.406C840.5 585.219 841.766 584.047 842.953 582.891C844.172 581.703 845.219 580.594 846.094 579.562C846.969 578.531 847.625 577.625 848.062 576.844C848.531 576.031 848.672 575.406 848.484 574.969C847.109 574.781 845.656 574.875 844.125 575.25C842.625 575.594 841.141 576.109 839.672 576.797C838.234 577.484 836.891 578.281 835.641 579.188C834.391 580.062 833.344 580.922 832.5 581.766C832.312 582.172 832 582.891 831.562 583.922C831.125 584.953 830.641 586.047 830.109 587.203C829.609 588.359 829.125 589.453 828.656 590.484C828.219 591.484 827.906 592.188 827.719 592.594C827.719 592.656 827.641 592.828 827.484 593.109C827.328 593.359 827.234 593.516 827.203 593.578ZM872.812 608.484C871.969 608.141 871.297 607.688 870.797 607.125C870.297 606.562 869.906 605.922 869.625 605.203C869.344 604.484 869.125 603.734 868.969 602.953C868.812 602.141 868.672 601.328 868.547 600.516C868.266 600.328 867.766 600.516 867.047 601.078C866.328 601.609 865.5 602.281 864.562 603.094C863.625 603.906 862.609 604.75 861.516 605.625C860.453 606.469 859.422 607.094 858.422 607.5C857.422 607.906 856.5 607.984 855.656 607.734C854.844 607.484 854.203 606.672 853.734 605.297C853.578 604.828 853.625 604.156 853.875 603.281C854.156 602.375 854.562 601.391 855.094 600.328C855.625 599.266 856.234 598.172 856.922 597.047C857.641 595.891 858.328 594.828 858.984 593.859C859.672 592.859 860.297 592.016 860.859 591.328C861.453 590.609 861.906 590.141 862.219 589.922C862.938 590.266 863.25 590.797 863.156 591.516C863.094 592.203 862.812 593 862.312 593.906C861.844 594.812 861.219 595.781 860.438 596.812C859.688 597.844 858.969 598.875 858.281 599.906C857.625 600.906 857.094 601.875 856.688 602.812C856.281 603.75 856.172 604.578 856.359 605.297C857.047 605.578 857.891 605.438 858.891 604.875C859.922 604.281 861.016 603.469 862.172 602.438C863.359 601.406 864.562 600.234 865.781 598.922C867.031 597.578 868.188 596.297 869.25 595.078C870.312 593.828 871.25 592.734 872.062 591.797C872.875 590.859 873.469 590.234 873.844 589.922C874.5 590.234 874.828 590.75 874.828 591.469C874.828 592.156 874.641 592.953 874.266 593.859C873.922 594.766 873.484 595.75 872.953 596.812C872.453 597.844 872.016 598.875 871.641 599.906C871.266 600.938 871.047 601.922 870.984 602.859C870.922 603.797 871.172 604.609 871.734 605.297L873.328 607.172H878.062C878.281 607.172 878.328 607.266 878.203 607.453C878.078 607.641 877.891 607.844 877.641 608.062C877.422 608.281 877.188 608.5 876.938 608.719C876.688 608.906 876.547 609 876.516 609C875.703 609.156 875.047 609.172 874.547 609.047C874.047 608.953 873.469 608.766 872.812 608.484ZM880.172 608.484C881.453 604.359 882.609 601.094 883.641 598.688C884.703 596.25 885.578 594.547 886.266 593.578C886.984 592.609 887.469 592.297 887.719 592.641C887.969 592.984 887.938 593.859 887.625 595.266C887.344 596.672 886.719 598.562 885.75 600.938C884.812 603.281 883.484 605.969 881.766 609C881.516 609.094 881.219 609.109 880.875 609.047C880.531 608.984 880.297 608.797 880.172 608.484ZM888.375 585.938C888.312 585.781 888.281 585.5 888.281 585.094C888.281 584.688 888.312 584.438 888.375 584.344C889.094 584.094 889.641 584.062 890.016 584.25C890.391 584.438 890.625 584.719 890.719 585.094C890.812 585.438 890.797 585.812 890.672 586.219C890.578 586.625 890.406 586.938 890.156 587.156C889.906 587.344 889.609 587.375 889.266 587.25C888.953 587.094 888.656 586.656 888.375 585.938ZM894.234 608.484C893.328 607.828 892.734 607 892.453 606C892.203 605 892.172 603.922 892.359 602.766C892.547 601.578 892.875 600.359 893.344 599.109C893.844 597.859 894.375 596.656 894.938 595.5C895.531 594.344 896.094 593.281 896.625 592.312C897.188 591.344 897.625 590.547 897.938 589.922C898.031 589.734 898.25 589.281 898.594 588.562C898.969 587.844 899.359 587.062 899.766 586.219C900.172 585.375 900.547 584.594 900.891 583.875C901.266 583.125 901.5 582.656 901.594 582.469C901.688 582.312 901.812 582.016 901.969 581.578C902.156 581.109 902.359 580.609 902.578 580.078C902.797 579.547 903.031 579.047 903.281 578.578C903.562 578.078 903.844 577.719 904.125 577.5C904.438 577.281 904.734 577.25 905.016 577.406C905.328 577.562 905.625 578.031 905.906 578.812C905.781 579.125 905.469 579.75 904.969 580.688C904.5 581.625 903.938 582.75 903.281 584.062C902.625 585.375 901.891 586.828 901.078 588.422C900.297 590.016 899.531 591.625 898.781 593.25C898.031 594.875 897.328 596.469 896.672 598.031C896.016 599.562 895.469 600.969 895.031 602.25C894.625 603.5 894.375 604.547 894.281 605.391C894.219 606.203 894.375 606.703 894.75 606.891C895.188 607.109 895.75 607.203 896.438 607.172C897.156 607.109 897.891 607.016 898.641 606.891C899.391 606.766 900.125 606.641 900.844 606.516C901.562 606.359 902.188 606.297 902.719 606.328C902.844 606.609 902.75 606.891 902.438 607.172C902.125 607.422 901.688 607.656 901.125 607.875C900.562 608.062 899.906 608.234 899.156 608.391C898.438 608.516 897.734 608.609 897.047 608.672C896.391 608.734 895.797 608.75 895.266 608.719C894.766 608.688 894.422 608.609 894.234 608.484ZM927.094 607.922C925.906 607.109 925.047 606.109 924.516 604.922C923.984 603.703 923.594 602.406 923.344 601.031H922.828C920.297 603.094 918.094 604.641 916.219 605.672C914.375 606.703 912.812 607.344 911.531 607.594C910.25 607.812 909.25 607.703 908.531 607.266C907.812 606.828 907.344 606.203 907.125 605.391C906.938 604.547 906.984 603.562 907.266 602.438C907.547 601.312 908.031 600.188 908.719 599.062C909.406 597.906 910.297 596.812 911.391 595.781C912.484 594.75 913.734 593.906 915.141 593.25C916.578 592.594 918.156 592.188 919.875 592.031C921.625 591.844 923.5 592.031 925.5 592.594L926.016 592.031L932.344 579.328C933.188 579.453 933.688 579.828 933.844 580.453C934 581.078 933.984 581.766 933.797 582.516C933.641 583.266 933.391 584 933.047 584.719C932.734 585.406 932.5 585.906 932.344 586.219C932.25 586.406 932.062 586.766 931.781 587.297C931.531 587.828 931.219 588.469 930.844 589.219C930.5 589.938 930.125 590.703 929.719 591.516C929.312 592.328 928.922 593.109 928.547 593.859C928.203 594.578 927.891 595.219 927.609 595.781C927.328 596.312 927.156 596.656 927.094 596.812C926.531 597.969 926.266 599.203 926.297 600.516C926.359 601.797 926.438 603.031 926.531 604.219C926.656 604.781 926.906 605.25 927.281 605.625C927.656 605.969 928.047 606.297 928.453 606.609C928.891 606.891 929.312 607.172 929.719 607.453C930.156 607.734 930.516 608.078 930.797 608.484C930.672 608.891 930.422 609.094 930.047 609.094C929.672 609.125 929.281 609.062 928.875 608.906C928.469 608.75 928.094 608.562 927.75 608.344C927.406 608.125 927.188 607.984 927.094 607.922ZM909.609 605.812C909.734 606.344 910.203 606.5 911.016 606.281C911.859 606.062 912.844 605.609 913.969 604.922C915.094 604.203 916.281 603.344 917.531 602.344C918.812 601.344 919.953 600.344 920.953 599.344C921.984 598.344 922.781 597.422 923.344 596.578C923.938 595.734 924.125 595.109 923.906 594.703C922.938 594.172 921.859 593.906 920.672 593.906C919.484 593.906 918.297 594.125 917.109 594.562C915.953 594.969 914.828 595.562 913.734 596.344C912.672 597.094 911.766 597.969 911.016 598.969C910.297 599.969 909.781 601.062 909.469 602.25C909.188 603.406 909.234 604.594 909.609 605.812ZM961.922 608.484C961.891 608.422 961.875 608.25 961.875 607.969C961.875 607.688 961.891 607.5 961.922 607.406C962.016 607.062 962.188 606.469 962.438 605.625C962.688 604.75 962.953 603.844 963.234 602.906C963.516 601.938 963.781 601.031 964.031 600.188C964.281 599.344 964.453 598.75 964.547 598.406C964.672 597.969 964.812 597.469 964.969 596.906C965.125 596.312 965.156 595.75 965.062 595.219C964.594 595.156 964.016 595.219 963.328 595.406C962.641 595.562 961.953 595.703 961.266 595.828C960.609 595.922 959.984 595.922 959.391 595.828C958.828 595.703 958.422 595.328 958.172 594.703C958.547 593.922 959.109 593.422 959.859 593.203C960.609 592.953 961.422 592.781 962.297 592.688C963.172 592.594 964 592.453 964.781 592.266C965.594 592.078 966.234 591.656 966.703 591C966.984 590.188 967.312 589.203 967.688 588.047C968.094 586.859 968.516 585.625 968.953 584.344C969.391 583.062 969.859 581.797 970.359 580.547C970.891 579.297 971.438 578.188 972 577.219C972.344 577 972.625 576.984 972.844 577.172C973.062 577.359 973.219 577.641 973.312 578.016C973.438 578.359 973.516 578.719 973.547 579.094C973.578 579.469 973.578 579.719 973.547 579.844C973.359 580.656 973.031 581.531 972.562 582.469C972.125 583.375 971.703 584.297 971.297 585.234C970.922 586.172 970.609 587.109 970.359 588.047C970.141 588.984 970.141 589.875 970.359 590.719H980.438C980.469 590.719 980.547 590.828 980.672 591.047C980.797 591.234 980.906 591.391 981 591.516C981.156 591.953 980.984 592.25 980.484 592.406C979.984 592.562 979.312 592.672 978.469 592.734C977.625 592.766 976.656 592.797 975.562 592.828C974.5 592.828 973.469 592.906 972.469 593.062C971.5 593.188 970.625 593.422 969.844 593.766C969.062 594.078 968.531 594.562 968.25 595.219C967.438 597.312 966.688 599.422 966 601.547C965.312 603.641 964.656 605.766 964.031 607.922C963.969 608.016 963.844 608.172 963.656 608.391C963.469 608.578 963.266 608.75 963.047 608.906C962.828 609.031 962.609 609.078 962.391 609.047C962.203 609.016 962.047 608.828 961.922 608.484ZM978.328 607.922C978.297 607.859 978.281 607.781 978.281 607.688C978.281 607.562 978.297 607.469 978.328 607.406C978.453 607.156 978.656 606.734 978.938 606.141C979.25 605.516 979.562 604.875 979.875 604.219C980.219 603.531 980.547 602.891 980.859 602.297C981.172 601.703 981.391 601.281 981.516 601.031C981.578 600.938 981.734 600.672 981.984 600.234C982.266 599.797 982.594 599.266 982.969 598.641C983.375 597.984 983.797 597.266 984.234 596.484C984.703 595.703 985.156 594.938 985.594 594.188C986.062 593.438 986.484 592.734 986.859 592.078C987.266 591.422 987.594 590.875 987.844 590.438C988.469 589.406 989.188 588.188 990 586.781C990.844 585.375 991.703 583.953 992.578 582.516C993.453 581.078 994.312 579.688 995.156 578.344C996.031 577 996.828 575.891 997.547 575.016C998.266 574.141 998.875 573.562 999.375 573.281C999.875 573 1000.22 573.188 1000.41 573.844V575.344C1000.19 575.688 999.891 576.141 999.516 576.703C999.141 577.234 998.75 577.812 998.344 578.438C997.969 579.031 997.594 579.609 997.219 580.172C996.844 580.734 996.562 581.172 996.375 581.484C996.094 581.922 995.641 582.625 995.016 583.594C994.391 584.562 993.688 585.656 992.906 586.875C992.125 588.094 991.328 589.375 990.516 590.719C989.703 592.031 988.969 593.266 988.312 594.422C987.656 595.578 987.125 596.578 986.719 597.422C986.344 598.234 986.203 598.75 986.297 598.969C987.047 598.75 987.844 598.359 988.688 597.797C989.562 597.203 990.438 596.578 991.312 595.922C992.188 595.266 993.062 594.641 993.938 594.047C994.812 593.422 995.625 592.938 996.375 592.594C997.125 592.688 997.781 592.969 998.344 593.438C998.906 593.906 999.312 594.5 999.562 595.219C999.531 595.5 999.5 596.031 999.469 596.812C999.469 597.562 999.469 598.359 999.469 599.203C999.469 600.047 999.469 600.844 999.469 601.594C999.5 602.344 999.531 602.859 999.562 603.141C999.594 603.484 999.75 603.922 1000.03 604.453C1000.31 604.953 1000.61 605.469 1000.92 606C1001.27 606.5 1001.56 606.938 1001.81 607.312C1002.09 607.688 1002.22 607.891 1002.19 607.922C1001.56 608.141 1000.97 608.156 1000.41 607.969C999.844 607.75 999.344 607.422 998.906 606.984C998.5 606.516 998.156 606 997.875 605.438C997.625 604.844 997.469 604.266 997.406 603.703C997.375 603.422 997.328 602.906 997.266 602.156C997.203 601.375 997.141 600.562 997.078 599.719C997.047 598.875 997 598.078 996.938 597.328C996.906 596.578 996.891 596.062 996.891 595.781L995.812 595.219C995.625 595.125 995.297 595.203 994.828 595.453C994.391 595.703 993.875 596.047 993.281 596.484C992.688 596.922 992.062 597.422 991.406 597.984C990.75 598.547 990.125 599.078 989.531 599.578C988.969 600.078 988.484 600.516 988.078 600.891C987.672 601.266 987.422 601.5 987.328 601.594C987.078 601.844 986.625 602.297 985.969 602.953C985.312 603.578 984.609 604.266 983.859 605.016C983.141 605.734 982.453 606.422 981.797 607.078C981.172 607.734 980.734 608.203 980.484 608.484C980.047 608.578 979.625 608.625 979.219 608.625C978.844 608.594 978.547 608.359 978.328 607.922ZM1007.77 608.484C1006.83 608.172 1006.11 607.703 1005.61 607.078C1005.14 606.422 1004.83 605.703 1004.67 604.922C1004.52 604.141 1004.48 603.328 1004.58 602.484C1004.7 601.609 1004.89 600.781 1005.14 600C1006.08 599 1007.12 597.859 1008.28 596.578C1009.47 595.266 1010.72 593.984 1012.03 592.734C1013.34 591.484 1014.7 590.328 1016.11 589.266C1017.55 588.172 1019 587.344 1020.47 586.781C1020.97 586.562 1021.36 586.578 1021.64 586.828C1021.95 587.047 1022.17 587.406 1022.3 587.906C1022.42 588.406 1022.47 588.984 1022.44 589.641C1022.44 590.297 1022.39 590.938 1022.3 591.562C1022.2 592.188 1022.08 592.75 1021.92 593.25C1021.77 593.75 1021.61 594.094 1021.45 594.281C1021.08 594.719 1020.34 595.234 1019.25 595.828C1018.19 596.422 1017 597.078 1015.69 597.797C1014.38 598.484 1013.06 599.203 1011.75 599.953C1010.44 600.703 1009.36 601.453 1008.52 602.203C1007.67 602.922 1007.17 603.641 1007.02 604.359C1006.86 605.078 1007.3 605.734 1008.33 606.328C1009.39 606.453 1010.67 606.406 1012.17 606.188C1013.7 605.938 1015.25 605.625 1016.81 605.25C1018.41 604.844 1019.94 604.438 1021.41 604.031C1022.88 603.594 1024.08 603.25 1025.02 603L1025.58 603.516C1024.89 604.422 1023.77 605.25 1022.2 606C1020.64 606.75 1018.95 607.375 1017.14 607.875C1015.33 608.344 1013.56 608.656 1011.84 608.812C1010.12 608.938 1008.77 608.828 1007.77 608.484ZM1018.97 590.578C1018.94 590.547 1018.7 590.688 1018.27 591C1017.83 591.281 1017.28 591.672 1016.62 592.172C1016 592.641 1015.31 593.172 1014.56 593.766C1013.84 594.328 1013.17 594.859 1012.55 595.359C1011.95 595.859 1011.45 596.297 1011.05 596.672C1010.64 597.016 1010.47 597.188 1010.53 597.188C1011.03 597.281 1011.67 597.219 1012.45 597C1013.27 596.75 1014.09 596.406 1014.94 595.969C1015.81 595.531 1016.64 595.047 1017.42 594.516C1018.2 593.953 1018.81 593.406 1019.25 592.875C1019.72 592.344 1019.95 591.875 1019.95 591.469C1019.98 591.062 1019.66 590.766 1018.97 590.578ZM1065.05 608.484C1064.42 608.016 1063.94 607.406 1063.59 606.656C1063.25 605.906 1062.98 605.109 1062.8 604.266C1062.64 603.422 1062.53 602.578 1062.47 601.734C1062.41 600.891 1062.38 600.141 1062.38 599.484C1062.31 599.422 1062.22 599.391 1062.09 599.391C1062 599.391 1061.92 599.422 1061.86 599.484C1061.08 600.047 1060.33 600.719 1059.61 601.5C1058.89 602.281 1058.17 603.078 1057.45 603.891C1056.77 604.703 1056.08 605.516 1055.39 606.328C1054.73 607.109 1054.06 607.828 1053.38 608.484C1052.94 608.641 1052.48 608.688 1052.02 608.625C1051.55 608.531 1051.14 608.375 1050.8 608.156C1050.48 607.906 1050.25 607.594 1050.09 607.219C1049.97 606.812 1050.02 606.344 1050.23 605.812C1050.83 603.906 1051.47 601.891 1052.16 599.766C1052.88 597.609 1053.62 595.562 1054.41 593.625C1054.69 592.938 1054.98 592.562 1055.3 592.5C1055.64 592.438 1055.94 592.562 1056.19 592.875C1056.44 593.188 1056.61 593.625 1056.7 594.188C1056.8 594.719 1056.75 595.25 1056.56 595.781C1056.47 596.031 1056.3 596.484 1056.05 597.141C1055.8 597.766 1055.53 598.453 1055.25 599.203C1054.97 599.922 1054.7 600.609 1054.45 601.266C1054.2 601.922 1054.03 602.375 1053.94 602.625V604.219C1054.91 603.344 1055.72 602.562 1056.38 601.875C1057.03 601.188 1057.64 600.5 1058.2 599.812C1058.8 599.094 1059.41 598.344 1060.03 597.562C1060.66 596.75 1061.44 595.797 1062.38 594.703C1063.09 593.859 1063.66 593.406 1064.06 593.344C1064.47 593.25 1064.77 593.422 1064.95 593.859C1065.17 594.266 1065.3 594.875 1065.33 595.688C1065.36 596.469 1065.36 597.328 1065.33 598.266C1065.33 599.172 1065.3 600.094 1065.23 601.031C1065.17 601.938 1065.14 602.734 1065.14 603.422C1065.17 604.078 1065.25 604.562 1065.38 604.875C1065.5 605.156 1065.73 605.125 1066.08 604.781C1066.45 604.188 1067 603.328 1067.72 602.203C1068.44 601.078 1069.25 599.844 1070.16 598.5C1071.06 597.125 1072.05 595.75 1073.11 594.375C1074.2 592.969 1075.31 591.719 1076.44 590.625C1077.56 589.5 1078.69 588.625 1079.81 588C1080.94 587.344 1082.02 587.094 1083.05 587.25C1083.08 587.375 1082.89 587.719 1082.48 588.281C1082.11 588.844 1081.59 589.516 1080.94 590.297C1080.31 591.047 1079.61 591.875 1078.83 592.781C1078.08 593.656 1077.33 594.5 1076.58 595.312C1075.86 596.125 1075.22 596.859 1074.66 597.516C1074.09 598.172 1073.7 598.656 1073.48 598.969C1073.39 599.094 1073.19 599.375 1072.88 599.812C1072.59 600.219 1072.25 600.719 1071.84 601.312C1071.47 601.875 1071.05 602.484 1070.58 603.141C1070.14 603.797 1069.72 604.422 1069.31 605.016C1068.91 605.609 1068.55 606.125 1068.23 606.562C1067.95 607 1067.77 607.281 1067.67 607.406C1067.39 607.812 1067.16 608.141 1066.97 608.391C1066.78 608.641 1066.59 608.812 1066.41 608.906C1066.25 609 1066.06 609.016 1065.84 608.953C1065.62 608.891 1065.36 608.734 1065.05 608.484ZM1088.06 608.484C1086.75 607.953 1085.92 607.156 1085.58 606.094C1085.27 605.031 1085.28 603.859 1085.62 602.578C1085.97 601.266 1086.56 599.922 1087.41 598.547C1088.25 597.141 1089.19 595.859 1090.22 594.703C1091.25 593.547 1092.28 592.578 1093.31 591.797C1094.38 590.984 1095.28 590.531 1096.03 590.438C1097.97 590.188 1099.48 590.328 1100.58 590.859C1101.7 591.359 1102.47 592.094 1102.88 593.062C1103.28 594.031 1103.39 595.172 1103.2 596.484C1103.02 597.766 1102.59 599.062 1101.94 600.375C1101.31 601.688 1100.48 602.953 1099.45 604.172C1098.45 605.391 1097.33 606.422 1096.08 607.266C1094.86 608.078 1093.56 608.625 1092.19 608.906C1090.81 609.156 1089.44 609.016 1088.06 608.484ZM1087.55 605.812C1087.8 606.812 1088.33 607.375 1089.14 607.5C1089.95 607.594 1090.89 607.391 1091.95 606.891C1093.05 606.359 1094.19 605.609 1095.38 604.641C1096.56 603.641 1097.64 602.562 1098.61 601.406C1099.61 600.25 1100.42 599.094 1101.05 597.938C1101.7 596.75 1102.02 595.719 1101.98 594.844C1101.98 593.969 1101.56 593.312 1100.72 592.875C1099.91 592.406 1098.53 592.312 1096.59 592.594C1096.16 593 1095.59 593.5 1094.91 594.094C1094.22 594.656 1093.5 595.281 1092.75 595.969C1092.03 596.656 1091.31 597.406 1090.59 598.219C1089.88 599 1089.25 599.812 1088.72 600.656C1088.19 601.5 1087.8 602.359 1087.55 603.234C1087.33 604.109 1087.33 604.969 1087.55 605.812ZM1105.88 608.484C1105.81 608.453 1105.81 608.094 1105.88 607.406C1105.97 606.688 1106.09 605.797 1106.25 604.734C1106.41 603.672 1106.61 602.5 1106.86 601.219C1107.11 599.938 1107.38 598.719 1107.66 597.562C1107.94 596.375 1108.23 595.344 1108.55 594.469C1108.89 593.562 1109.22 592.938 1109.53 592.594C1109.75 592.375 1109.97 592.375 1110.19 592.594C1110.41 592.781 1110.62 593.031 1110.84 593.344C1111.06 593.625 1111.28 593.891 1111.5 594.141C1111.72 594.359 1111.95 594.375 1112.2 594.188C1113.08 592.969 1114.03 591.812 1115.06 590.719C1116.12 589.594 1117.3 588.625 1118.58 587.812C1118.7 587.719 1119.05 587.578 1119.61 587.391C1120.17 587.172 1120.81 586.969 1121.53 586.781C1122.25 586.562 1122.98 586.391 1123.73 586.266C1124.52 586.109 1125.17 586.047 1125.7 586.078C1126.27 586.078 1126.64 586.219 1126.83 586.5C1127.05 586.75 1126.95 587.188 1126.55 587.812C1124.67 587.844 1122.92 588.391 1121.3 589.453C1119.67 590.516 1118.17 591.828 1116.8 593.391C1115.42 594.953 1114.17 596.656 1113.05 598.5C1111.92 600.312 1110.94 602 1110.09 603.562C1109.28 605.125 1108.59 606.422 1108.03 607.453C1107.5 608.484 1107.11 609 1106.86 609C1106.83 609 1106.69 608.938 1106.44 608.812C1106.19 608.656 1106 608.547 1105.88 608.484ZM1129.97 608.484C1129.06 607.828 1128.47 607 1128.19 606C1127.94 605 1127.91 603.922 1128.09 602.766C1128.28 601.578 1128.61 600.359 1129.08 599.109C1129.58 597.859 1130.11 596.656 1130.67 595.5C1131.27 594.344 1131.83 593.281 1132.36 592.312C1132.92 591.344 1133.36 590.547 1133.67 589.922C1133.77 589.734 1133.98 589.281 1134.33 588.562C1134.7 587.844 1135.09 587.062 1135.5 586.219C1135.91 585.375 1136.28 584.594 1136.62 583.875C1137 583.125 1137.23 582.656 1137.33 582.469C1137.42 582.312 1137.55 582.016 1137.7 581.578C1137.89 581.109 1138.09 580.609 1138.31 580.078C1138.53 579.547 1138.77 579.047 1139.02 578.578C1139.3 578.078 1139.58 577.719 1139.86 577.5C1140.17 577.281 1140.47 577.25 1140.75 577.406C1141.06 577.562 1141.36 578.031 1141.64 578.812C1141.52 579.125 1141.2 579.75 1140.7 580.688C1140.23 581.625 1139.67 582.75 1139.02 584.062C1138.36 585.375 1137.62 586.828 1136.81 588.422C1136.03 590.016 1135.27 591.625 1134.52 593.25C1133.77 594.875 1133.06 596.469 1132.41 598.031C1131.75 599.562 1131.2 600.969 1130.77 602.25C1130.36 603.5 1130.11 604.547 1130.02 605.391C1129.95 606.203 1130.11 606.703 1130.48 606.891C1130.92 607.109 1131.48 607.203 1132.17 607.172C1132.89 607.109 1133.62 607.016 1134.38 606.891C1135.12 606.766 1135.86 606.641 1136.58 606.516C1137.3 606.359 1137.92 606.297 1138.45 606.328C1138.58 606.609 1138.48 606.891 1138.17 607.172C1137.86 607.422 1137.42 607.656 1136.86 607.875C1136.3 608.062 1135.64 608.234 1134.89 608.391C1134.17 608.516 1133.47 608.609 1132.78 608.672C1132.12 608.734 1131.53 608.75 1131 608.719C1130.5 608.688 1130.16 608.609 1129.97 608.484ZM1162.83 607.922C1161.64 607.109 1160.78 606.109 1160.25 604.922C1159.72 603.703 1159.33 602.406 1159.08 601.031H1158.56C1156.03 603.094 1153.83 604.641 1151.95 605.672C1150.11 606.703 1148.55 607.344 1147.27 607.594C1145.98 607.812 1144.98 607.703 1144.27 607.266C1143.55 606.828 1143.08 606.203 1142.86 605.391C1142.67 604.547 1142.72 603.562 1143 602.438C1143.28 601.312 1143.77 600.188 1144.45 599.062C1145.14 597.906 1146.03 596.812 1147.12 595.781C1148.22 594.75 1149.47 593.906 1150.88 593.25C1152.31 592.594 1153.89 592.188 1155.61 592.031C1157.36 591.844 1159.23 592.031 1161.23 592.594L1161.75 592.031L1168.08 579.328C1168.92 579.453 1169.42 579.828 1169.58 580.453C1169.73 581.078 1169.72 581.766 1169.53 582.516C1169.38 583.266 1169.12 584 1168.78 584.719C1168.47 585.406 1168.23 585.906 1168.08 586.219C1167.98 586.406 1167.8 586.766 1167.52 587.297C1167.27 587.828 1166.95 588.469 1166.58 589.219C1166.23 589.938 1165.86 590.703 1165.45 591.516C1165.05 592.328 1164.66 593.109 1164.28 593.859C1163.94 594.578 1163.62 595.219 1163.34 595.781C1163.06 596.312 1162.89 596.656 1162.83 596.812C1162.27 597.969 1162 599.203 1162.03 600.516C1162.09 601.797 1162.17 603.031 1162.27 604.219C1162.39 604.781 1162.64 605.25 1163.02 605.625C1163.39 605.969 1163.78 606.297 1164.19 606.609C1164.62 606.891 1165.05 607.172 1165.45 607.453C1165.89 607.734 1166.25 608.078 1166.53 608.484C1166.41 608.891 1166.16 609.094 1165.78 609.094C1165.41 609.125 1165.02 609.062 1164.61 608.906C1164.2 608.75 1163.83 608.562 1163.48 608.344C1163.14 608.125 1162.92 607.984 1162.83 607.922ZM1145.34 605.812C1145.47 606.344 1145.94 606.5 1146.75 606.281C1147.59 606.062 1148.58 605.609 1149.7 604.922C1150.83 604.203 1152.02 603.344 1153.27 602.344C1154.55 601.344 1155.69 600.344 1156.69 599.344C1157.72 598.344 1158.52 597.422 1159.08 596.578C1159.67 595.734 1159.86 595.109 1159.64 594.703C1158.67 594.172 1157.59 593.906 1156.41 593.906C1155.22 593.906 1154.03 594.125 1152.84 594.562C1151.69 594.969 1150.56 595.562 1149.47 596.344C1148.41 597.094 1147.5 597.969 1146.75 598.969C1146.03 599.969 1145.52 601.062 1145.2 602.25C1144.92 603.406 1144.97 604.594 1145.34 605.812ZM1185.42 627C1185.14 626.562 1185.16 625.875 1185.47 624.938C1185.75 624.031 1186.17 623.078 1186.73 622.078C1187.27 621.109 1187.83 620.188 1188.42 619.312C1188.98 618.469 1189.41 617.859 1189.69 617.484C1189.94 617.141 1190.33 616.625 1190.86 615.938C1191.36 615.25 1191.94 614.469 1192.59 613.594C1193.25 612.719 1193.94 611.797 1194.66 610.828C1195.41 609.859 1196.11 608.953 1196.77 608.109C1197.42 607.234 1198.02 606.453 1198.55 605.766C1199.08 605.078 1199.47 604.562 1199.72 604.219C1199.97 603.938 1199.97 603.5 1199.72 602.906C1199.47 602.312 1199.08 601.625 1198.55 600.844C1198.05 600.031 1197.47 599.156 1196.81 598.219C1196.19 597.25 1195.61 596.281 1195.08 595.312C1194.58 594.312 1194.19 593.328 1193.91 592.359C1193.66 591.391 1193.66 590.484 1193.91 589.641C1194.25 589.391 1194.62 589.547 1195.03 590.109C1195.44 590.641 1195.86 591.391 1196.3 592.359C1196.77 593.297 1197.25 594.344 1197.75 595.5C1198.25 596.625 1198.73 597.656 1199.2 598.594C1199.67 599.5 1200.12 600.219 1200.56 600.75C1201.03 601.281 1201.47 601.391 1201.88 601.078C1202.69 600.484 1203.48 599.734 1204.27 598.828C1205.05 597.891 1205.8 596.922 1206.52 595.922C1207.23 594.922 1207.91 593.953 1208.53 593.016C1209.19 592.047 1209.8 591.203 1210.36 590.484C1210.58 590.203 1210.78 590.016 1210.97 589.922C1211.19 589.797 1211.52 589.812 1211.95 589.969C1212.3 590.094 1212.23 590.641 1211.77 591.609C1211.3 592.578 1210.56 593.828 1209.56 595.359C1208.56 596.891 1207.36 598.641 1205.95 600.609C1204.58 602.547 1203.11 604.578 1201.55 606.703C1200.02 608.797 1198.47 610.891 1196.91 612.984C1195.38 615.078 1193.97 617.016 1192.69 618.797C1191.38 620.609 1190.27 622.188 1189.36 623.531C1188.42 624.906 1187.81 625.906 1187.53 626.531C1187.41 626.812 1187.28 627.094 1187.16 627.375C1187 627.656 1186.8 627.891 1186.55 628.078C1186.48 628.047 1186.41 627.984 1186.31 627.891C1186.19 627.797 1186.08 627.688 1185.98 627.562C1185.86 627.469 1185.75 627.359 1185.66 627.234C1185.53 627.141 1185.45 627.062 1185.42 627ZM1217.77 608.484C1216.45 607.953 1215.62 607.156 1215.28 606.094C1214.97 605.031 1214.98 603.859 1215.33 602.578C1215.67 601.266 1216.27 599.922 1217.11 598.547C1217.95 597.141 1218.89 595.859 1219.92 594.703C1220.95 593.547 1221.98 592.578 1223.02 591.797C1224.08 590.984 1224.98 590.531 1225.73 590.438C1227.67 590.188 1229.19 590.328 1230.28 590.859C1231.41 591.359 1232.17 592.094 1232.58 593.062C1232.98 594.031 1233.09 595.172 1232.91 596.484C1232.72 597.766 1232.3 599.062 1231.64 600.375C1231.02 601.688 1230.19 602.953 1229.16 604.172C1228.16 605.391 1227.03 606.422 1225.78 607.266C1224.56 608.078 1223.27 608.625 1221.89 608.906C1220.52 609.156 1219.14 609.016 1217.77 608.484ZM1217.25 605.812C1217.5 606.812 1218.03 607.375 1218.84 607.5C1219.66 607.594 1220.59 607.391 1221.66 606.891C1222.75 606.359 1223.89 605.609 1225.08 604.641C1226.27 603.641 1227.34 602.562 1228.31 601.406C1229.31 600.25 1230.12 599.094 1230.75 597.938C1231.41 596.75 1231.72 595.719 1231.69 594.844C1231.69 593.969 1231.27 593.312 1230.42 592.875C1229.61 592.406 1228.23 592.312 1226.3 592.594C1225.86 593 1225.3 593.5 1224.61 594.094C1223.92 594.656 1223.2 595.281 1222.45 595.969C1221.73 596.656 1221.02 597.406 1220.3 598.219C1219.58 599 1218.95 599.812 1218.42 600.656C1217.89 601.5 1217.5 602.359 1217.25 603.234C1217.03 604.109 1217.03 604.969 1217.25 605.812ZM1254.38 608.484C1253.53 608.141 1252.86 607.688 1252.36 607.125C1251.86 606.562 1251.47 605.922 1251.19 605.203C1250.91 604.484 1250.69 603.734 1250.53 602.953C1250.38 602.141 1250.23 601.328 1250.11 600.516C1249.83 600.328 1249.33 600.516 1248.61 601.078C1247.89 601.609 1247.06 602.281 1246.12 603.094C1245.19 603.906 1244.17 604.75 1243.08 605.625C1242.02 606.469 1240.98 607.094 1239.98 607.5C1238.98 607.906 1238.06 607.984 1237.22 607.734C1236.41 607.484 1235.77 606.672 1235.3 605.297C1235.14 604.828 1235.19 604.156 1235.44 603.281C1235.72 602.375 1236.12 601.391 1236.66 600.328C1237.19 599.266 1237.8 598.172 1238.48 597.047C1239.2 595.891 1239.89 594.828 1240.55 593.859C1241.23 592.859 1241.86 592.016 1242.42 591.328C1243.02 590.609 1243.47 590.141 1243.78 589.922C1244.5 590.266 1244.81 590.797 1244.72 591.516C1244.66 592.203 1244.38 593 1243.88 593.906C1243.41 594.812 1242.78 595.781 1242 596.812C1241.25 597.844 1240.53 598.875 1239.84 599.906C1239.19 600.906 1238.66 601.875 1238.25 602.812C1237.84 603.75 1237.73 604.578 1237.92 605.297C1238.61 605.578 1239.45 605.438 1240.45 604.875C1241.48 604.281 1242.58 603.469 1243.73 602.438C1244.92 601.406 1246.12 600.234 1247.34 598.922C1248.59 597.578 1249.75 596.297 1250.81 595.078C1251.88 593.828 1252.81 592.734 1253.62 591.797C1254.44 590.859 1255.03 590.234 1255.41 589.922C1256.06 590.234 1256.39 590.75 1256.39 591.469C1256.39 592.156 1256.2 592.953 1255.83 593.859C1255.48 594.766 1255.05 595.75 1254.52 596.812C1254.02 597.844 1253.58 598.875 1253.2 599.906C1252.83 600.938 1252.61 601.922 1252.55 602.859C1252.48 603.797 1252.73 604.609 1253.3 605.297L1254.89 607.172H1259.62C1259.84 607.172 1259.89 607.266 1259.77 607.453C1259.64 607.641 1259.45 607.844 1259.2 608.062C1258.98 608.281 1258.75 608.5 1258.5 608.719C1258.25 608.906 1258.11 609 1258.08 609C1257.27 609.156 1256.61 609.172 1256.11 609.047C1255.61 608.953 1255.03 608.766 1254.38 608.484ZM834.656 672.484C834.031 672.016 833.547 671.406 833.203 670.656C832.859 669.906 832.594 669.109 832.406 668.266C832.25 667.422 832.141 666.578 832.078 665.734C832.016 664.891 831.984 664.141 831.984 663.484C831.922 663.422 831.828 663.391 831.703 663.391C831.609 663.391 831.531 663.422 831.469 663.484C830.688 664.047 829.938 664.719 829.219 665.5C828.5 666.281 827.781 667.078 827.062 667.891C826.375 668.703 825.688 669.516 825 670.328C824.344 671.109 823.672 671.828 822.984 672.484C822.547 672.641 822.094 672.688 821.625 672.625C821.156 672.531 820.75 672.375 820.406 672.156C820.094 671.906 819.859 671.594 819.703 671.219C819.578 670.812 819.625 670.344 819.844 669.812C820.438 667.906 821.078 665.891 821.766 663.766C822.484 661.609 823.234 659.562 824.016 657.625C824.297 656.938 824.594 656.562 824.906 656.5C825.25 656.438 825.547 656.562 825.797 656.875C826.047 657.188 826.219 657.625 826.312 658.188C826.406 658.719 826.359 659.25 826.172 659.781C826.078 660.031 825.906 660.484 825.656 661.141C825.406 661.766 825.141 662.453 824.859 663.203C824.578 663.922 824.312 664.609 824.062 665.266C823.812 665.922 823.641 666.375 823.547 666.625V668.219C824.516 667.344 825.328 666.562 825.984 665.875C826.641 665.188 827.25 664.5 827.812 663.812C828.406 663.094 829.016 662.344 829.641 661.562C830.266 660.75 831.047 659.797 831.984 658.703C832.703 657.859 833.266 657.406 833.672 657.344C834.078 657.25 834.375 657.422 834.562 657.859C834.781 658.266 834.906 658.875 834.938 659.688C834.969 660.469 834.969 661.328 834.938 662.266C834.938 663.172 834.906 664.094 834.844 665.031C834.781 665.938 834.75 666.734 834.75 667.422C834.781 668.078 834.859 668.562 834.984 668.875C835.109 669.156 835.344 669.125 835.688 668.781C836.062 668.188 836.609 667.328 837.328 666.203C838.047 665.078 838.859 663.844 839.766 662.5C840.672 661.125 841.656 659.75 842.719 658.375C843.812 656.969 844.922 655.719 846.047 654.625C847.172 653.5 848.297 652.625 849.422 652C850.547 651.344 851.625 651.094 852.656 651.25C852.688 651.375 852.5 651.719 852.094 652.281C851.719 652.844 851.203 653.516 850.547 654.297C849.922 655.047 849.219 655.875 848.438 656.781C847.688 657.656 846.938 658.5 846.188 659.312C845.469 660.125 844.828 660.859 844.266 661.516C843.703 662.172 843.312 662.656 843.094 662.969C843 663.094 842.797 663.375 842.484 663.812C842.203 664.219 841.859 664.719 841.453 665.312C841.078 665.875 840.656 666.484 840.188 667.141C839.75 667.797 839.328 668.422 838.922 669.016C838.516 669.609 838.156 670.125 837.844 670.562C837.562 671 837.375 671.281 837.281 671.406C837 671.812 836.766 672.141 836.578 672.391C836.391 672.641 836.203 672.812 836.016 672.906C835.859 673 835.672 673.016 835.453 672.953C835.234 672.891 834.969 672.734 834.656 672.484ZM856.641 671.922C855.891 671.297 855.469 670.375 855.375 669.156C855.312 667.938 855.484 666.562 855.891 665.031C856.328 663.5 856.953 661.906 857.766 660.25C858.609 658.562 859.578 656.969 860.672 655.469C861.766 653.938 862.953 652.578 864.234 651.391C865.516 650.172 866.797 649.281 868.078 648.719C869.359 648.125 870.609 647.922 871.828 648.109C873.047 648.266 874.156 648.969 875.156 650.219C875.781 651 876.156 651.797 876.281 652.609C876.406 653.391 876.391 654.203 876.234 655.047C876.078 655.859 875.828 656.703 875.484 657.578C875.141 658.422 874.797 659.281 874.453 660.156C874.141 661.031 873.875 661.922 873.656 662.828C873.469 663.734 873.438 664.656 873.562 665.594C873.719 666.781 874.25 667.484 875.156 667.703C876.062 667.922 877.141 667.859 878.391 667.516C879.672 667.172 881.016 666.625 882.422 665.875C883.828 665.125 885.125 664.375 886.312 663.625C887.531 662.875 888.531 662.219 889.312 661.656C890.125 661.094 890.531 660.812 890.531 660.812C891.406 660.625 891.891 660.688 891.984 661C892.109 661.281 891.938 661.719 891.469 662.312C891.031 662.875 890.359 663.531 889.453 664.281C888.547 665 887.516 665.703 886.359 666.391C885.203 667.078 883.969 667.703 882.656 668.266C881.344 668.828 880.062 669.219 878.812 669.438C877.562 669.625 876.375 669.609 875.25 669.391C874.156 669.141 873.25 668.578 872.531 667.703C872.188 667.328 871.922 666.953 871.734 666.578C871.578 666.203 871.312 665.875 870.938 665.594C870.469 666.031 869.906 666.609 869.25 667.328C868.594 668.016 867.875 668.719 867.094 669.438C866.344 670.125 865.531 670.781 864.656 671.406C863.812 672.031 862.938 672.5 862.031 672.812C861.125 673.125 860.203 673.234 859.266 673.141C858.359 673.047 857.484 672.641 856.641 671.922ZM857.156 670.328C857.438 671.328 858.062 671.797 859.031 671.734C860 671.641 861.125 671.156 862.406 670.281C863.688 669.406 865.016 668.219 866.391 666.719C867.766 665.188 869 663.5 870.094 661.656C871.188 659.781 872.016 657.812 872.578 655.75C873.172 653.688 873.328 651.656 873.047 649.656C872.297 649.062 871.359 649.047 870.234 649.609C869.109 650.141 867.906 651.031 866.625 652.281C865.375 653.5 864.125 654.969 862.875 656.688C861.656 658.375 860.578 660.094 859.641 661.844C858.703 663.562 857.984 665.188 857.484 666.719C857.016 668.25 856.906 669.453 857.156 670.328ZM905.156 672.484C905.062 671.453 905.141 670.438 905.391 669.438C905.672 668.406 906.031 667.406 906.469 666.438C906.938 665.438 907.422 664.453 907.922 663.484C908.453 662.484 908.906 661.516 909.281 660.578C909.656 659.609 909.922 658.672 910.078 657.766C910.234 656.828 910.172 655.906 909.891 655C909.109 654.719 908.203 654.781 907.172 655.188C906.172 655.594 905.109 656.219 903.984 657.062C902.859 657.875 901.688 658.844 900.469 659.969C899.281 661.062 898.109 662.188 896.953 663.344C895.828 664.469 894.75 665.547 893.719 666.578C892.688 667.609 891.75 668.469 890.906 669.156C890.094 669.812 889.406 670.234 888.844 670.422C888.281 670.578 887.906 670.375 887.719 669.812C887.688 669.781 887.859 669.391 888.234 668.641C888.641 667.859 889.125 666.891 889.688 665.734C890.281 664.578 890.922 663.328 891.609 661.984C892.328 660.641 893 659.391 893.625 658.234C894.25 657.047 894.797 656.047 895.266 655.234C895.734 654.422 896.031 653.984 896.156 653.922C896.812 654.359 897.141 654.844 897.141 655.375C897.172 655.875 897.094 656.406 896.906 656.969C896.719 657.5 896.5 658.047 896.25 658.609C896.031 659.172 896 659.734 896.156 660.297C896.656 659.953 897.344 659.484 898.219 658.891C899.125 658.266 900.094 657.625 901.125 656.969C902.188 656.312 903.281 655.672 904.406 655.047C905.562 654.422 906.641 653.938 907.641 653.594C908.641 653.219 909.531 653.016 910.312 652.984C911.125 652.953 911.719 653.188 912.094 653.688C912.469 654.188 912.578 655.016 912.422 656.172C912.297 657.297 911.812 658.844 910.969 660.812C910.875 661.031 910.641 661.562 910.266 662.406C909.922 663.219 909.531 664.109 909.094 665.078C908.688 666.016 908.297 666.906 907.922 667.75C907.578 668.562 907.359 669.078 907.266 669.297C907.234 669.422 907.188 669.656 907.125 670C907.094 670.312 907.047 670.672 906.984 671.078C906.922 671.453 906.828 671.828 906.703 672.203C906.578 672.547 906.422 672.812 906.234 673C906.047 673.188 905.828 673.172 905.578 672.953C905.328 672.703 905.188 672.547 905.156 672.484ZM918.141 672.484C918.109 672.422 918.094 672.25 918.094 671.969C918.094 671.688 918.109 671.5 918.141 671.406C918.234 671.062 918.406 670.469 918.656 669.625C918.906 668.75 919.172 667.844 919.453 666.906C919.734 665.938 920 665.031 920.25 664.188C920.5 663.344 920.672 662.75 920.766 662.406C920.891 661.969 921.031 661.469 921.188 660.906C921.344 660.312 921.375 659.75 921.281 659.219C920.812 659.156 920.234 659.219 919.547 659.406C918.859 659.562 918.172 659.703 917.484 659.828C916.828 659.922 916.203 659.922 915.609 659.828C915.047 659.703 914.641 659.328 914.391 658.703C914.766 657.922 915.328 657.422 916.078 657.203C916.828 656.953 917.641 656.781 918.516 656.688C919.391 656.594 920.219 656.453 921 656.266C921.812 656.078 922.453 655.656 922.922 655C923.203 654.188 923.531 653.203 923.906 652.047C924.312 650.859 924.734 649.625 925.172 648.344C925.609 647.062 926.078 645.797 926.578 644.547C927.109 643.297 927.656 642.188 928.219 641.219C928.562 641 928.844 640.984 929.062 641.172C929.281 641.359 929.438 641.641 929.531 642.016C929.656 642.359 929.734 642.719 929.766 643.094C929.797 643.469 929.797 643.719 929.766 643.844C929.578 644.656 929.25 645.531 928.781 646.469C928.344 647.375 927.922 648.297 927.516 649.234C927.141 650.172 926.828 651.109 926.578 652.047C926.359 652.984 926.359 653.875 926.578 654.719H936.656C936.688 654.719 936.766 654.828 936.891 655.047C937.016 655.234 937.125 655.391 937.219 655.516C937.375 655.953 937.203 656.25 936.703 656.406C936.203 656.562 935.531 656.672 934.688 656.734C933.844 656.766 932.875 656.797 931.781 656.828C930.719 656.828 929.688 656.906 928.688 657.062C927.719 657.188 926.844 657.422 926.062 657.766C925.281 658.078 924.75 658.562 924.469 659.219C923.656 661.312 922.906 663.422 922.219 665.547C921.531 667.641 920.875 669.766 920.25 671.922C920.188 672.016 920.062 672.172 919.875 672.391C919.688 672.578 919.484 672.75 919.266 672.906C919.047 673.031 918.828 673.078 918.609 673.047C918.422 673.016 918.266 672.828 918.141 672.484ZM963.516 672.484C963.484 672.422 963.469 672.25 963.469 671.969C963.469 671.688 963.484 671.5 963.516 671.406C963.609 671.062 963.781 670.469 964.031 669.625C964.281 668.75 964.547 667.844 964.828 666.906C965.109 665.938 965.375 665.031 965.625 664.188C965.875 663.344 966.047 662.75 966.141 662.406C966.266 661.969 966.406 661.469 966.562 660.906C966.719 660.312 966.75 659.75 966.656 659.219C966.188 659.156 965.609 659.219 964.922 659.406C964.234 659.562 963.547 659.703 962.859 659.828C962.203 659.922 961.578 659.922 960.984 659.828C960.422 659.703 960.016 659.328 959.766 658.703C960.141 657.922 960.703 657.422 961.453 657.203C962.203 656.953 963.016 656.781 963.891 656.688C964.766 656.594 965.594 656.453 966.375 656.266C967.188 656.078 967.828 655.656 968.297 655C968.578 654.188 968.906 653.203 969.281 652.047C969.688 650.859 970.109 649.625 970.547 648.344C970.984 647.062 971.453 645.797 971.953 644.547C972.484 643.297 973.031 642.188 973.594 641.219C973.938 641 974.219 640.984 974.438 641.172C974.656 641.359 974.812 641.641 974.906 642.016C975.031 642.359 975.109 642.719 975.141 643.094C975.172 643.469 975.172 643.719 975.141 643.844C974.953 644.656 974.625 645.531 974.156 646.469C973.719 647.375 973.297 648.297 972.891 649.234C972.516 650.172 972.203 651.109 971.953 652.047C971.734 652.984 971.734 653.875 971.953 654.719H982.031C982.062 654.719 982.141 654.828 982.266 655.047C982.391 655.234 982.5 655.391 982.594 655.516C982.75 655.953 982.578 656.25 982.078 656.406C981.578 656.562 980.906 656.672 980.062 656.734C979.219 656.766 978.25 656.797 977.156 656.828C976.094 656.828 975.062 656.906 974.062 657.062C973.094 657.188 972.219 657.422 971.438 657.766C970.656 658.078 970.125 658.562 969.844 659.219C969.031 661.312 968.281 663.422 967.594 665.547C966.906 667.641 966.25 669.766 965.625 671.922C965.562 672.016 965.438 672.172 965.25 672.391C965.062 672.578 964.859 672.75 964.641 672.906C964.422 673.031 964.203 673.078 963.984 673.047C963.797 673.016 963.641 672.828 963.516 672.484ZM983.109 672.484C981.797 671.953 980.969 671.156 980.625 670.094C980.312 669.031 980.328 667.859 980.672 666.578C981.016 665.266 981.609 663.922 982.453 662.547C983.297 661.141 984.234 659.859 985.266 658.703C986.297 657.547 987.328 656.578 988.359 655.797C989.422 654.984 990.328 654.531 991.078 654.438C993.016 654.188 994.531 654.328 995.625 654.859C996.75 655.359 997.516 656.094 997.922 657.062C998.328 658.031 998.438 659.172 998.25 660.484C998.062 661.766 997.641 663.062 996.984 664.375C996.359 665.688 995.531 666.953 994.5 668.172C993.5 669.391 992.375 670.422 991.125 671.266C989.906 672.078 988.609 672.625 987.234 672.906C985.859 673.156 984.484 673.016 983.109 672.484ZM982.594 669.812C982.844 670.812 983.375 671.375 984.188 671.5C985 671.594 985.938 671.391 987 670.891C988.094 670.359 989.234 669.609 990.422 668.641C991.609 667.641 992.688 666.562 993.656 665.406C994.656 664.25 995.469 663.094 996.094 661.938C996.75 660.75 997.062 659.719 997.031 658.844C997.031 657.969 996.609 657.312 995.766 656.875C994.953 656.406 993.578 656.312 991.641 656.594C991.203 657 990.641 657.5 989.953 658.094C989.266 658.656 988.547 659.281 987.797 659.969C987.078 660.656 986.359 661.406 985.641 662.219C984.922 663 984.297 663.812 983.766 664.656C983.234 665.5 982.844 666.359 982.594 667.234C982.375 668.109 982.375 668.969 982.594 669.812ZM1027.45 672.484C1026.55 671.828 1025.95 671 1025.67 670C1025.42 669 1025.39 667.922 1025.58 666.766C1025.77 665.578 1026.09 664.359 1026.56 663.109C1027.06 661.859 1027.59 660.656 1028.16 659.5C1028.75 658.344 1029.31 657.281 1029.84 656.312C1030.41 655.344 1030.84 654.547 1031.16 653.922C1031.25 653.734 1031.47 653.281 1031.81 652.562C1032.19 651.844 1032.58 651.062 1032.98 650.219C1033.39 649.375 1033.77 648.594 1034.11 647.875C1034.48 647.125 1034.72 646.656 1034.81 646.469C1034.91 646.312 1035.03 646.016 1035.19 645.578C1035.38 645.109 1035.58 644.609 1035.8 644.078C1036.02 643.547 1036.25 643.047 1036.5 642.578C1036.78 642.078 1037.06 641.719 1037.34 641.5C1037.66 641.281 1037.95 641.25 1038.23 641.406C1038.55 641.562 1038.84 642.031 1039.12 642.812C1039 643.125 1038.69 643.75 1038.19 644.688C1037.72 645.625 1037.16 646.75 1036.5 648.062C1035.84 649.375 1035.11 650.828 1034.3 652.422C1033.52 654.016 1032.75 655.625 1032 657.25C1031.25 658.875 1030.55 660.469 1029.89 662.031C1029.23 663.562 1028.69 664.969 1028.25 666.25C1027.84 667.5 1027.59 668.547 1027.5 669.391C1027.44 670.203 1027.59 670.703 1027.97 670.891C1028.41 671.109 1028.97 671.203 1029.66 671.172C1030.38 671.109 1031.11 671.016 1031.86 670.891C1032.61 670.766 1033.34 670.641 1034.06 670.516C1034.78 670.359 1035.41 670.297 1035.94 670.328C1036.06 670.609 1035.97 670.891 1035.66 671.172C1035.34 671.422 1034.91 671.656 1034.34 671.875C1033.78 672.062 1033.12 672.234 1032.38 672.391C1031.66 672.516 1030.95 672.609 1030.27 672.672C1029.61 672.734 1029.02 672.75 1028.48 672.719C1027.98 672.688 1027.64 672.609 1027.45 672.484ZM1040.67 672.484C1041.95 668.359 1043.11 665.094 1044.14 662.688C1045.2 660.25 1046.08 658.547 1046.77 657.578C1047.48 656.609 1047.97 656.297 1048.22 656.641C1048.47 656.984 1048.44 657.859 1048.12 659.266C1047.84 660.672 1047.22 662.562 1046.25 664.938C1045.31 667.281 1043.98 669.969 1042.27 673C1042.02 673.094 1041.72 673.109 1041.38 673.047C1041.03 672.984 1040.8 672.797 1040.67 672.484ZM1048.88 649.938C1048.81 649.781 1048.78 649.5 1048.78 649.094C1048.78 648.688 1048.81 648.438 1048.88 648.344C1049.59 648.094 1050.14 648.062 1050.52 648.25C1050.89 648.438 1051.12 648.719 1051.22 649.094C1051.31 649.438 1051.3 649.812 1051.17 650.219C1051.08 650.625 1050.91 650.938 1050.66 651.156C1050.41 651.344 1050.11 651.375 1049.77 651.25C1049.45 651.094 1049.16 650.656 1048.88 649.938ZM1054.73 671.922C1054.08 671.547 1053.61 670.953 1053.33 670.141C1053.05 669.328 1052.89 668.406 1052.86 667.375C1052.83 666.344 1052.89 665.266 1053.05 664.141C1053.2 663.016 1053.39 661.922 1053.61 660.859C1053.83 659.797 1054.05 658.844 1054.27 658C1054.48 657.156 1054.64 656.5 1054.73 656.031C1054.89 655.938 1055.05 655.938 1055.2 656.031C1055.39 656.125 1055.56 656.266 1055.72 656.453C1055.91 656.609 1056.05 656.766 1056.14 656.922C1056.27 657.047 1056.33 657.109 1056.33 657.109C1056.42 658.203 1056.42 659.281 1056.33 660.344C1056.27 661.375 1056.17 662.406 1056.05 663.438C1055.95 664.469 1055.86 665.516 1055.77 666.578C1055.7 667.641 1055.7 668.719 1055.77 669.812C1056.02 670.281 1056.53 670.297 1057.31 669.859C1058.09 669.391 1059.05 668.656 1060.17 667.656C1061.3 666.625 1062.52 665.422 1063.83 664.047C1065.17 662.641 1066.48 661.25 1067.77 659.875C1069.08 658.5 1070.31 657.219 1071.47 656.031C1072.62 654.812 1073.59 653.891 1074.38 653.266C1075.19 652.609 1075.75 652.344 1076.06 652.469C1076.38 652.562 1076.33 653.219 1075.92 654.438C1075.17 655.094 1074.28 656.078 1073.25 657.391C1072.22 658.703 1071.09 660.125 1069.88 661.656C1068.66 663.156 1067.39 664.656 1066.08 666.156C1064.77 667.656 1063.44 668.953 1062.09 670.047C1060.78 671.109 1059.5 671.859 1058.25 672.297C1057 672.703 1055.83 672.578 1054.73 671.922ZM1080.94 672.484C1080 672.172 1079.28 671.703 1078.78 671.078C1078.31 670.422 1078 669.703 1077.84 668.922C1077.69 668.141 1077.66 667.328 1077.75 666.484C1077.88 665.609 1078.06 664.781 1078.31 664C1079.25 663 1080.3 661.859 1081.45 660.578C1082.64 659.266 1083.89 657.984 1085.2 656.734C1086.52 655.484 1087.88 654.328 1089.28 653.266C1090.72 652.172 1092.17 651.344 1093.64 650.781C1094.14 650.562 1094.53 650.578 1094.81 650.828C1095.12 651.047 1095.34 651.406 1095.47 651.906C1095.59 652.406 1095.64 652.984 1095.61 653.641C1095.61 654.297 1095.56 654.938 1095.47 655.562C1095.38 656.188 1095.25 656.75 1095.09 657.25C1094.94 657.75 1094.78 658.094 1094.62 658.281C1094.25 658.719 1093.52 659.234 1092.42 659.828C1091.36 660.422 1090.17 661.078 1088.86 661.797C1087.55 662.484 1086.23 663.203 1084.92 663.953C1083.61 664.703 1082.53 665.453 1081.69 666.203C1080.84 666.922 1080.34 667.641 1080.19 668.359C1080.03 669.078 1080.47 669.734 1081.5 670.328C1082.56 670.453 1083.84 670.406 1085.34 670.188C1086.88 669.938 1088.42 669.625 1089.98 669.25C1091.58 668.844 1093.11 668.438 1094.58 668.031C1096.05 667.594 1097.25 667.25 1098.19 667L1098.75 667.516C1098.06 668.422 1096.94 669.25 1095.38 670C1093.81 670.75 1092.12 671.375 1090.31 671.875C1088.5 672.344 1086.73 672.656 1085.02 672.812C1083.3 672.938 1081.94 672.828 1080.94 672.484ZM1092.14 654.578C1092.11 654.547 1091.88 654.688 1091.44 655C1091 655.281 1090.45 655.672 1089.8 656.172C1089.17 656.641 1088.48 657.172 1087.73 657.766C1087.02 658.328 1086.34 658.859 1085.72 659.359C1085.12 659.859 1084.62 660.297 1084.22 660.672C1083.81 661.016 1083.64 661.188 1083.7 661.188C1084.2 661.281 1084.84 661.219 1085.62 661C1086.44 660.75 1087.27 660.406 1088.11 659.969C1088.98 659.531 1089.81 659.047 1090.59 658.516C1091.38 657.953 1091.98 657.406 1092.42 656.875C1092.89 656.344 1093.12 655.875 1093.12 655.469C1093.16 655.062 1092.83 654.766 1092.14 654.578ZM1123.08 672.484C1124.36 668.359 1125.52 665.094 1126.55 662.688C1127.61 660.25 1128.48 658.547 1129.17 657.578C1129.89 656.609 1130.38 656.297 1130.62 656.641C1130.88 656.984 1130.84 657.859 1130.53 659.266C1130.25 660.672 1129.62 662.562 1128.66 664.938C1127.72 667.281 1126.39 669.969 1124.67 673C1124.42 673.094 1124.12 673.109 1123.78 673.047C1123.44 672.984 1123.2 672.797 1123.08 672.484ZM1131.28 649.938C1131.22 649.781 1131.19 649.5 1131.19 649.094C1131.19 648.688 1131.22 648.438 1131.28 648.344C1132 648.094 1132.55 648.062 1132.92 648.25C1133.3 648.438 1133.53 648.719 1133.62 649.094C1133.72 649.438 1133.7 649.812 1133.58 650.219C1133.48 650.625 1133.31 650.938 1133.06 651.156C1132.81 651.344 1132.52 651.375 1132.17 651.25C1131.86 651.094 1131.56 650.656 1131.28 649.938ZM1152.75 672.484C1152.66 671.453 1152.73 670.438 1152.98 669.438C1153.27 668.406 1153.62 667.406 1154.06 666.438C1154.53 665.438 1155.02 664.453 1155.52 663.484C1156.05 662.484 1156.5 661.516 1156.88 660.578C1157.25 659.609 1157.52 658.672 1157.67 657.766C1157.83 656.828 1157.77 655.906 1157.48 655C1156.7 654.719 1155.8 654.781 1154.77 655.188C1153.77 655.594 1152.7 656.219 1151.58 657.062C1150.45 657.875 1149.28 658.844 1148.06 659.969C1146.88 661.062 1145.7 662.188 1144.55 663.344C1143.42 664.469 1142.34 665.547 1141.31 666.578C1140.28 667.609 1139.34 668.469 1138.5 669.156C1137.69 669.812 1137 670.234 1136.44 670.422C1135.88 670.578 1135.5 670.375 1135.31 669.812C1135.28 669.781 1135.45 669.391 1135.83 668.641C1136.23 667.859 1136.72 666.891 1137.28 665.734C1137.88 664.578 1138.52 663.328 1139.2 661.984C1139.92 660.641 1140.59 659.391 1141.22 658.234C1141.84 657.047 1142.39 656.047 1142.86 655.234C1143.33 654.422 1143.62 653.984 1143.75 653.922C1144.41 654.359 1144.73 654.844 1144.73 655.375C1144.77 655.875 1144.69 656.406 1144.5 656.969C1144.31 657.5 1144.09 658.047 1143.84 658.609C1143.62 659.172 1143.59 659.734 1143.75 660.297C1144.25 659.953 1144.94 659.484 1145.81 658.891C1146.72 658.266 1147.69 657.625 1148.72 656.969C1149.78 656.312 1150.88 655.672 1152 655.047C1153.16 654.422 1154.23 653.938 1155.23 653.594C1156.23 653.219 1157.12 653.016 1157.91 652.984C1158.72 652.953 1159.31 653.188 1159.69 653.688C1160.06 654.188 1160.17 655.016 1160.02 656.172C1159.89 657.297 1159.41 658.844 1158.56 660.812C1158.47 661.031 1158.23 661.562 1157.86 662.406C1157.52 663.219 1157.12 664.109 1156.69 665.078C1156.28 666.016 1155.89 666.906 1155.52 667.75C1155.17 668.562 1154.95 669.078 1154.86 669.297C1154.83 669.422 1154.78 669.656 1154.72 670C1154.69 670.312 1154.64 670.672 1154.58 671.078C1154.52 671.453 1154.42 671.828 1154.3 672.203C1154.17 672.547 1154.02 672.812 1153.83 673C1153.64 673.188 1153.42 673.172 1153.17 672.953C1152.92 672.703 1152.78 672.547 1152.75 672.484ZM1160.91 679.844C1160.75 679.406 1160.83 678.891 1161.14 678.297C1161.42 677.734 1161.78 677.156 1162.22 676.562C1162.69 676 1163.16 675.438 1163.62 674.875C1164.09 674.312 1164.42 673.844 1164.61 673.469C1164.89 672.906 1165.09 672.344 1165.22 671.781C1165.34 671.219 1165.42 670.656 1165.45 670.094C1165.48 669.531 1165.5 668.969 1165.5 668.406C1165.53 667.812 1165.59 667.203 1165.69 666.578C1165.81 665.703 1166.02 665.391 1166.3 665.641C1166.61 665.859 1166.89 666.391 1167.14 667.234C1167.39 668.047 1167.55 669 1167.61 670.094C1167.7 671.188 1167.59 672.141 1167.28 672.953C1167.22 673.047 1167.09 673.328 1166.91 673.797C1166.72 674.266 1166.47 674.797 1166.16 675.391C1165.88 676.016 1165.53 676.656 1165.12 677.312C1164.75 678 1164.34 678.594 1163.91 679.094C1163.5 679.625 1163.08 680.016 1162.64 680.266C1162.23 680.547 1161.83 680.594 1161.42 680.406C1161.36 680.375 1161.27 680.281 1161.14 680.125C1161.02 680 1160.94 679.906 1160.91 679.844ZM1198.88 672.484C1197.56 671.953 1196.73 671.156 1196.39 670.094C1196.08 669.031 1196.09 667.859 1196.44 666.578C1196.78 665.266 1197.38 663.922 1198.22 662.547C1199.06 661.141 1200 659.859 1201.03 658.703C1202.06 657.547 1203.09 656.578 1204.12 655.797C1205.19 654.984 1206.09 654.531 1206.84 654.438C1208.78 654.188 1210.3 654.328 1211.39 654.859C1212.52 655.359 1213.28 656.094 1213.69 657.062C1214.09 658.031 1214.2 659.172 1214.02 660.484C1213.83 661.766 1213.41 663.062 1212.75 664.375C1212.12 665.688 1211.3 666.953 1210.27 668.172C1209.27 669.391 1208.14 670.422 1206.89 671.266C1205.67 672.078 1204.38 672.625 1203 672.906C1201.62 673.156 1200.25 673.016 1198.88 672.484ZM1198.36 669.812C1198.61 670.812 1199.14 671.375 1199.95 671.5C1200.77 671.594 1201.7 671.391 1202.77 670.891C1203.86 670.359 1205 669.609 1206.19 668.641C1207.38 667.641 1208.45 666.562 1209.42 665.406C1210.42 664.25 1211.23 663.094 1211.86 661.938C1212.52 660.75 1212.83 659.719 1212.8 658.844C1212.8 657.969 1212.38 657.312 1211.53 656.875C1210.72 656.406 1209.34 656.312 1207.41 656.594C1206.97 657 1206.41 657.5 1205.72 658.094C1205.03 658.656 1204.31 659.281 1203.56 659.969C1202.84 660.656 1202.12 661.406 1201.41 662.219C1200.69 663 1200.06 663.812 1199.53 664.656C1199 665.5 1198.61 666.359 1198.36 667.234C1198.14 668.109 1198.14 668.969 1198.36 669.812ZM1233.61 672.484C1233.52 671.453 1233.59 670.438 1233.84 669.438C1234.12 668.406 1234.48 667.406 1234.92 666.438C1235.39 665.438 1235.88 664.453 1236.38 663.484C1236.91 662.484 1237.36 661.516 1237.73 660.578C1238.11 659.609 1238.38 658.672 1238.53 657.766C1238.69 656.828 1238.62 655.906 1238.34 655C1237.56 654.719 1236.66 654.781 1235.62 655.188C1234.62 655.594 1233.56 656.219 1232.44 657.062C1231.31 657.875 1230.14 658.844 1228.92 659.969C1227.73 661.062 1226.56 662.188 1225.41 663.344C1224.28 664.469 1223.2 665.547 1222.17 666.578C1221.14 667.609 1220.2 668.469 1219.36 669.156C1218.55 669.812 1217.86 670.234 1217.3 670.422C1216.73 670.578 1216.36 670.375 1216.17 669.812C1216.14 669.781 1216.31 669.391 1216.69 668.641C1217.09 667.859 1217.58 666.891 1218.14 665.734C1218.73 664.578 1219.38 663.328 1220.06 661.984C1220.78 660.641 1221.45 659.391 1222.08 658.234C1222.7 657.047 1223.25 656.047 1223.72 655.234C1224.19 654.422 1224.48 653.984 1224.61 653.922C1225.27 654.359 1225.59 654.844 1225.59 655.375C1225.62 655.875 1225.55 656.406 1225.36 656.969C1225.17 657.5 1224.95 658.047 1224.7 658.609C1224.48 659.172 1224.45 659.734 1224.61 660.297C1225.11 659.953 1225.8 659.484 1226.67 658.891C1227.58 658.266 1228.55 657.625 1229.58 656.969C1230.64 656.312 1231.73 655.672 1232.86 655.047C1234.02 654.422 1235.09 653.938 1236.09 653.594C1237.09 653.219 1237.98 653.016 1238.77 652.984C1239.58 652.953 1240.17 653.188 1240.55 653.688C1240.92 654.188 1241.03 655.016 1240.88 656.172C1240.75 657.297 1240.27 658.844 1239.42 660.812C1239.33 661.031 1239.09 661.562 1238.72 662.406C1238.38 663.219 1237.98 664.109 1237.55 665.078C1237.14 666.016 1236.75 666.906 1236.38 667.75C1236.03 668.562 1235.81 669.078 1235.72 669.297C1235.69 669.422 1235.64 669.656 1235.58 670C1235.55 670.312 1235.5 670.672 1235.44 671.078C1235.38 671.453 1235.28 671.828 1235.16 672.203C1235.03 672.547 1234.88 672.812 1234.69 673C1234.5 673.188 1234.28 673.172 1234.03 672.953C1233.78 672.703 1233.64 672.547 1233.61 672.484ZM1246.31 672.484C1245.38 672.172 1244.66 671.703 1244.16 671.078C1243.69 670.422 1243.38 669.703 1243.22 668.922C1243.06 668.141 1243.03 667.328 1243.12 666.484C1243.25 665.609 1243.44 664.781 1243.69 664C1244.62 663 1245.67 661.859 1246.83 660.578C1248.02 659.266 1249.27 657.984 1250.58 656.734C1251.89 655.484 1253.25 654.328 1254.66 653.266C1256.09 652.172 1257.55 651.344 1259.02 650.781C1259.52 650.562 1259.91 650.578 1260.19 650.828C1260.5 651.047 1260.72 651.406 1260.84 651.906C1260.97 652.406 1261.02 652.984 1260.98 653.641C1260.98 654.297 1260.94 654.938 1260.84 655.562C1260.75 656.188 1260.62 656.75 1260.47 657.25C1260.31 657.75 1260.16 658.094 1260 658.281C1259.62 658.719 1258.89 659.234 1257.8 659.828C1256.73 660.422 1255.55 661.078 1254.23 661.797C1252.92 662.484 1251.61 663.203 1250.3 663.953C1248.98 664.703 1247.91 665.453 1247.06 666.203C1246.22 666.922 1245.72 667.641 1245.56 668.359C1245.41 669.078 1245.84 669.734 1246.88 670.328C1247.94 670.453 1249.22 670.406 1250.72 670.188C1252.25 669.938 1253.8 669.625 1255.36 669.25C1256.95 668.844 1258.48 668.438 1259.95 668.031C1261.42 667.594 1262.62 667.25 1263.56 667L1264.12 667.516C1263.44 668.422 1262.31 669.25 1260.75 670C1259.19 670.75 1257.5 671.375 1255.69 671.875C1253.88 672.344 1252.11 672.656 1250.39 672.812C1248.67 672.938 1247.31 672.828 1246.31 672.484ZM1257.52 654.578C1257.48 654.547 1257.25 654.688 1256.81 655C1256.38 655.281 1255.83 655.672 1255.17 656.172C1254.55 656.641 1253.86 657.172 1253.11 657.766C1252.39 658.328 1251.72 658.859 1251.09 659.359C1250.5 659.859 1250 660.297 1249.59 660.672C1249.19 661.016 1249.02 661.188 1249.08 661.188C1249.58 661.281 1250.22 661.219 1251 661C1251.81 660.75 1252.64 660.406 1253.48 659.969C1254.36 659.531 1255.19 659.047 1255.97 658.516C1256.75 657.953 1257.36 657.406 1257.8 656.875C1258.27 656.344 1258.5 655.875 1258.5 655.469C1258.53 655.062 1258.2 654.766 1257.52 654.578ZM1292.2 672.484C1291.08 671.578 1290.31 670.406 1289.91 668.969C1289.5 667.531 1289.36 665.938 1289.48 664.188C1289.61 662.438 1289.94 660.609 1290.47 658.703C1291 656.766 1291.62 654.875 1292.34 653.031C1293.09 651.156 1293.88 649.375 1294.69 647.688C1295.53 646 1296.3 644.516 1296.98 643.234C1297.7 641.953 1298.3 640.938 1298.77 640.188C1299.27 639.438 1299.55 639.078 1299.61 639.109C1299.86 639.234 1300.03 639.406 1300.12 639.625C1300.22 639.812 1300.27 640.031 1300.27 640.281C1300.3 640.531 1300.3 640.781 1300.27 641.031C1300.23 641.281 1300.2 641.516 1300.17 641.734C1300.14 641.797 1300.05 641.984 1299.89 642.297C1299.73 642.578 1299.64 642.75 1299.61 642.812C1297.17 648.156 1295.34 652.641 1294.12 656.266C1292.91 659.859 1292.16 662.734 1291.88 664.891C1291.59 667.047 1291.72 668.562 1292.25 669.438C1292.81 670.281 1293.64 670.625 1294.73 670.469C1295.86 670.281 1297.19 669.672 1298.72 668.641C1300.28 667.578 1301.92 666.219 1303.64 664.562C1305.39 662.906 1307.16 661.016 1308.94 658.891C1310.72 656.766 1312.41 654.547 1314 652.234C1315.62 649.922 1317.06 647.594 1318.31 645.25C1319.59 642.906 1320.59 640.672 1321.31 638.547C1321.38 638.484 1321.45 638.391 1321.55 638.266C1321.67 638.109 1321.77 638.031 1321.83 638.031C1322.7 638.625 1323.03 639.641 1322.81 641.078C1322.59 642.484 1321.98 644.141 1320.98 646.047C1320.02 647.953 1318.72 650.016 1317.09 652.234C1315.5 654.453 1313.75 656.641 1311.84 658.797C1309.97 660.953 1308.03 663 1306.03 664.938C1304.03 666.844 1302.12 668.453 1300.31 669.766C1298.5 671.078 1296.88 672.016 1295.44 672.578C1294.03 673.109 1292.95 673.078 1292.2 672.484ZM1316.95 671.406C1316.89 671.188 1316.88 670.891 1316.91 670.516C1316.97 670.109 1317.03 669.703 1317.09 669.297C1317.19 668.891 1317.28 668.531 1317.38 668.219C1317.47 667.906 1317.52 667.734 1317.52 667.703L1328.11 640.141C1328.33 639.578 1328.53 639.375 1328.72 639.531C1328.91 639.656 1329.05 639.953 1329.14 640.422C1329.27 640.859 1329.33 641.375 1329.33 641.969C1329.33 642.531 1329.27 642.984 1329.14 643.328C1328.14 645.703 1327.12 648.094 1326.09 650.5C1325.09 652.875 1324.12 655.281 1323.19 657.719C1322.28 660.125 1321.42 662.562 1320.61 665.031C1319.8 667.469 1319.11 669.953 1318.55 672.484C1318.3 672.641 1318.08 672.703 1317.89 672.672C1317.73 672.641 1317.58 672.562 1317.42 672.438C1317.3 672.281 1317.19 672.109 1317.09 671.922C1317.03 671.734 1316.98 671.562 1316.95 671.406ZM821.672 735.922C820.922 735.297 820.5 734.375 820.406 733.156C820.344 731.938 820.516 730.562 820.922 729.031C821.359 727.5 821.984 725.906 822.797 724.25C823.641 722.562 824.609 720.969 825.703 719.469C826.797 717.938 827.984 716.578 829.266 715.391C830.547 714.172 831.828 713.281 833.109 712.719C834.391 712.125 835.641 711.922 836.859 712.109C838.078 712.266 839.188 712.969 840.188 714.219C840.812 715 841.188 715.797 841.312 716.609C841.438 717.391 841.422 718.203 841.266 719.047C841.109 719.859 840.859 720.703 840.516 721.578C840.172 722.422 839.828 723.281 839.484 724.156C839.172 725.031 838.906 725.922 838.688 726.828C838.5 727.734 838.469 728.656 838.594 729.594C838.75 730.781 839.281 731.484 840.188 731.703C841.094 731.922 842.172 731.859 843.422 731.516C844.703 731.172 846.047 730.625 847.453 729.875C848.859 729.125 850.156 728.375 851.344 727.625C852.562 726.875 853.562 726.219 854.344 725.656C855.156 725.094 855.562 724.812 855.562 724.812C856.438 724.625 856.922 724.688 857.016 725C857.141 725.281 856.969 725.719 856.5 726.312C856.062 726.875 855.391 727.531 854.484 728.281C853.578 729 852.547 729.703 851.391 730.391C850.234 731.078 849 731.703 847.688 732.266C846.375 732.828 845.094 733.219 843.844 733.438C842.594 733.625 841.406 733.609 840.281 733.391C839.188 733.141 838.281 732.578 837.562 731.703C837.219 731.328 836.953 730.953 836.766 730.578C836.609 730.203 836.344 729.875 835.969 729.594C835.5 730.031 834.938 730.609 834.281 731.328C833.625 732.016 832.906 732.719 832.125 733.438C831.375 734.125 830.562 734.781 829.688 735.406C828.844 736.031 827.969 736.5 827.062 736.812C826.156 737.125 825.234 737.234 824.297 737.141C823.391 737.047 822.516 736.641 821.672 735.922ZM822.188 734.328C822.469 735.328 823.094 735.797 824.062 735.734C825.031 735.641 826.156 735.156 827.438 734.281C828.719 733.406 830.047 732.219 831.422 730.719C832.797 729.188 834.031 727.5 835.125 725.656C836.219 723.781 837.047 721.812 837.609 719.75C838.203 717.688 838.359 715.656 838.078 713.656C837.328 713.062 836.391 713.047 835.266 713.609C834.141 714.141 832.938 715.031 831.656 716.281C830.406 717.5 829.156 718.969 827.906 720.688C826.688 722.375 825.609 724.094 824.672 725.844C823.734 727.562 823.016 729.188 822.516 730.719C822.047 732.25 821.938 733.453 822.188 734.328ZM856.172 736.484C856.141 736.422 856.125 736.25 856.125 735.969C856.125 735.688 856.141 735.5 856.172 735.406C856.266 735.062 856.438 734.469 856.688 733.625C856.938 732.75 857.203 731.844 857.484 730.906C857.766 729.938 858.031 729.031 858.281 728.188C858.531 727.344 858.703 726.75 858.797 726.406C858.922 725.969 859.062 725.469 859.219 724.906C859.375 724.312 859.406 723.75 859.312 723.219C858.844 723.156 858.266 723.219 857.578 723.406C856.891 723.562 856.203 723.703 855.516 723.828C854.859 723.922 854.234 723.922 853.641 723.828C853.078 723.703 852.672 723.328 852.422 722.703C852.797 721.922 853.359 721.422 854.109 721.203C854.859 720.953 855.672 720.781 856.547 720.688C857.422 720.594 858.25 720.453 859.031 720.266C859.844 720.078 860.484 719.656 860.953 719C861.234 718.188 861.562 717.203 861.938 716.047C862.344 714.859 862.766 713.625 863.203 712.344C863.641 711.062 864.109 709.797 864.609 708.547C865.141 707.297 865.688 706.188 866.25 705.219C866.594 705 866.875 704.984 867.094 705.172C867.312 705.359 867.469 705.641 867.562 706.016C867.688 706.359 867.766 706.719 867.797 707.094C867.828 707.469 867.828 707.719 867.797 707.844C867.609 708.656 867.281 709.531 866.812 710.469C866.375 711.375 865.953 712.297 865.547 713.234C865.172 714.172 864.859 715.109 864.609 716.047C864.391 716.984 864.391 717.875 864.609 718.719H874.688C874.719 718.719 874.797 718.828 874.922 719.047C875.047 719.234 875.156 719.391 875.25 719.516C875.406 719.953 875.234 720.25 874.734 720.406C874.234 720.562 873.562 720.672 872.719 720.734C871.875 720.766 870.906 720.797 869.812 720.828C868.75 720.828 867.719 720.906 866.719 721.062C865.75 721.188 864.875 721.422 864.094 721.766C863.312 722.078 862.781 722.562 862.5 723.219C861.688 725.312 860.938 727.422 860.25 729.547C859.562 731.641 858.906 733.766 858.281 735.922C858.219 736.016 858.094 736.172 857.906 736.391C857.719 736.578 857.516 736.75 857.297 736.906C857.078 737.031 856.859 737.078 856.641 737.047C856.453 737.016 856.297 736.828 856.172 736.484ZM899.953 735.922C899.203 735.297 898.781 734.375 898.688 733.156C898.625 731.938 898.797 730.562 899.203 729.031C899.641 727.5 900.266 725.906 901.078 724.25C901.922 722.562 902.891 720.969 903.984 719.469C905.078 717.938 906.266 716.578 907.547 715.391C908.828 714.172 910.109 713.281 911.391 712.719C912.672 712.125 913.922 711.922 915.141 712.109C916.359 712.266 917.469 712.969 918.469 714.219C919.094 715 919.469 715.797 919.594 716.609C919.719 717.391 919.703 718.203 919.547 719.047C919.391 719.859 919.141 720.703 918.797 721.578C918.453 722.422 918.109 723.281 917.766 724.156C917.453 725.031 917.188 725.922 916.969 726.828C916.781 727.734 916.75 728.656 916.875 729.594C917.031 730.781 917.562 731.484 918.469 731.703C919.375 731.922 920.453 731.859 921.703 731.516C922.984 731.172 924.328 730.625 925.734 729.875C927.141 729.125 928.438 728.375 929.625 727.625C930.844 726.875 931.844 726.219 932.625 725.656C933.438 725.094 933.844 724.812 933.844 724.812C934.719 724.625 935.203 724.688 935.297 725C935.422 725.281 935.25 725.719 934.781 726.312C934.344 726.875 933.672 727.531 932.766 728.281C931.859 729 930.828 729.703 929.672 730.391C928.516 731.078 927.281 731.703 925.969 732.266C924.656 732.828 923.375 733.219 922.125 733.438C920.875 733.625 919.688 733.609 918.562 733.391C917.469 733.141 916.562 732.578 915.844 731.703C915.5 731.328 915.234 730.953 915.047 730.578C914.891 730.203 914.625 729.875 914.25 729.594C913.781 730.031 913.219 730.609 912.562 731.328C911.906 732.016 911.188 732.719 910.406 733.438C909.656 734.125 908.844 734.781 907.969 735.406C907.125 736.031 906.25 736.5 905.344 736.812C904.438 737.125 903.516 737.234 902.578 737.141C901.672 737.047 900.797 736.641 899.953 735.922ZM900.469 734.328C900.75 735.328 901.375 735.797 902.344 735.734C903.312 735.641 904.438 735.156 905.719 734.281C907 733.406 908.328 732.219 909.703 730.719C911.078 729.188 912.312 727.5 913.406 725.656C914.5 723.781 915.328 721.812 915.891 719.75C916.484 717.688 916.641 715.656 916.359 713.656C915.609 713.062 914.672 713.047 913.547 713.609C912.422 714.141 911.219 715.031 909.938 716.281C908.688 717.5 907.438 718.969 906.188 720.688C904.969 722.375 903.891 724.094 902.953 725.844C902.016 727.562 901.297 729.188 900.797 730.719C900.328 732.25 900.219 733.453 900.469 734.328ZM959.672 736.484C959.641 736.422 959.625 736.25 959.625 735.969C959.625 735.688 959.641 735.5 959.672 735.406C959.766 735.062 959.938 734.469 960.188 733.625C960.438 732.75 960.703 731.844 960.984 730.906C961.266 729.938 961.531 729.031 961.781 728.188C962.031 727.344 962.203 726.75 962.297 726.406C962.422 725.969 962.562 725.469 962.719 724.906C962.875 724.312 962.906 723.75 962.812 723.219C962.344 723.156 961.766 723.219 961.078 723.406C960.391 723.562 959.703 723.703 959.016 723.828C958.359 723.922 957.734 723.922 957.141 723.828C956.578 723.703 956.172 723.328 955.922 722.703C956.297 721.922 956.859 721.422 957.609 721.203C958.359 720.953 959.172 720.781 960.047 720.688C960.922 720.594 961.75 720.453 962.531 720.266C963.344 720.078 963.984 719.656 964.453 719C964.734 718.188 965.062 717.203 965.438 716.047C965.844 714.859 966.266 713.625 966.703 712.344C967.141 711.062 967.609 709.797 968.109 708.547C968.641 707.297 969.188 706.188 969.75 705.219C970.094 705 970.375 704.984 970.594 705.172C970.812 705.359 970.969 705.641 971.062 706.016C971.188 706.359 971.266 706.719 971.297 707.094C971.328 707.469 971.328 707.719 971.297 707.844C971.109 708.656 970.781 709.531 970.312 710.469C969.875 711.375 969.453 712.297 969.047 713.234C968.672 714.172 968.359 715.109 968.109 716.047C967.891 716.984 967.891 717.875 968.109 718.719H978.188C978.219 718.719 978.297 718.828 978.422 719.047C978.547 719.234 978.656 719.391 978.75 719.516C978.906 719.953 978.734 720.25 978.234 720.406C977.734 720.562 977.062 720.672 976.219 720.734C975.375 720.766 974.406 720.797 973.312 720.828C972.25 720.828 971.219 720.906 970.219 721.062C969.25 721.188 968.375 721.422 967.594 721.766C966.812 722.078 966.281 722.562 966 723.219C965.188 725.312 964.438 727.422 963.75 729.547C963.062 731.641 962.406 733.766 961.781 735.922C961.719 736.016 961.594 736.172 961.406 736.391C961.219 736.578 961.016 736.75 960.797 736.906C960.578 737.031 960.359 737.078 960.141 737.047C959.953 737.016 959.797 736.828 959.672 736.484ZM976.078 736.484C977.359 732.359 978.516 729.094 979.547 726.688C980.609 724.25 981.484 722.547 982.172 721.578C982.891 720.609 983.375 720.297 983.625 720.641C983.875 720.984 983.844 721.859 983.531 723.266C983.25 724.672 982.625 726.562 981.656 728.938C980.719 731.281 979.391 733.969 977.672 737C977.422 737.094 977.125 737.109 976.781 737.047C976.438 736.984 976.203 736.797 976.078 736.484ZM984.281 713.938C984.219 713.781 984.188 713.5 984.188 713.094C984.188 712.688 984.219 712.438 984.281 712.344C985 712.094 985.547 712.062 985.922 712.25C986.297 712.438 986.531 712.719 986.625 713.094C986.719 713.438 986.703 713.812 986.578 714.219C986.484 714.625 986.312 714.938 986.062 715.156C985.812 715.344 985.516 715.375 985.172 715.25C984.859 715.094 984.562 714.656 984.281 713.938ZM1016.62 735.922C1016.28 735.516 1016.08 735.062 1016.02 734.562C1015.98 734.031 1016.02 733.516 1016.11 733.016C1016.23 732.484 1016.39 731.984 1016.58 731.516C1016.8 731.016 1017 730.562 1017.19 730.156C1017.31 729.844 1017.56 729.281 1017.94 728.469C1018.34 727.625 1018.77 726.75 1019.2 725.844C1019.67 724.938 1020.11 724.094 1020.52 723.312C1020.92 722.5 1021.2 721.938 1021.36 721.625V720.594C1021.05 720.438 1020.41 720.656 1019.44 721.25C1018.47 721.812 1017.34 722.609 1016.06 723.641C1014.78 724.641 1013.42 725.766 1011.98 727.016C1010.55 728.266 1009.19 729.469 1007.91 730.625C1006.66 731.75 1005.56 732.766 1004.62 733.672C1003.69 734.547 1003.09 735.125 1002.84 735.406C1002.16 735.625 1001.7 735.484 1001.48 734.984C1001.3 734.453 1001.25 733.734 1001.34 732.828C1001.44 731.891 1001.62 730.859 1001.91 729.734C1002.19 728.578 1002.47 727.5 1002.75 726.5C1003.06 725.469 1003.33 724.594 1003.55 723.875C1003.8 723.156 1003.91 722.766 1003.88 722.703C1003.25 722.484 1002.59 722.562 1001.91 722.938C1001.22 723.312 1000.52 723.875 999.797 724.625C999.078 725.344 998.359 726.203 997.641 727.203C996.922 728.172 996.203 729.156 995.484 730.156C994.766 731.125 994.078 732.062 993.422 732.969C992.766 733.844 992.141 734.562 991.547 735.125C990.953 735.688 990.391 736.016 989.859 736.109C989.359 736.203 988.922 735.969 988.547 735.406C988.516 735.375 988.5 735.297 988.5 735.172C988.5 735.047 988.516 734.953 988.547 734.891C988.703 734.578 988.938 734.094 989.25 733.438C989.594 732.75 989.969 731.984 990.375 731.141C990.781 730.297 991.219 729.422 991.688 728.516C992.156 727.578 992.594 726.703 993 725.891C993.438 725.047 993.812 724.297 994.125 723.641C994.469 722.984 994.734 722.5 994.922 722.188C995.078 721.875 995.297 721.484 995.578 721.016C995.859 720.516 996.141 720.047 996.422 719.609C996.703 719.141 996.953 718.75 997.172 718.438C997.391 718.094 997.5 717.922 997.5 717.922H998.625C998.844 718.641 998.812 719.312 998.531 719.938C998.25 720.562 997.906 721.172 997.5 721.766C997.125 722.359 996.797 722.953 996.516 723.547C996.266 724.109 996.266 724.719 996.516 725.375C999.203 723 1001.27 721.25 1002.7 720.125C1004.17 719 1005.2 718.359 1005.8 718.203C1006.39 718.047 1006.67 718.281 1006.64 718.906C1006.61 719.531 1006.47 720.375 1006.22 721.438C1006 722.5 1005.77 723.719 1005.52 725.094C1005.3 726.438 1005.28 727.75 1005.47 729.031H1006.03C1006.22 728.906 1006.53 728.672 1006.97 728.328C1007.41 727.984 1007.88 727.609 1008.38 727.203C1008.91 726.797 1009.39 726.422 1009.83 726.078C1010.3 725.734 1010.62 725.5 1010.81 725.375C1011.16 725.094 1011.66 724.703 1012.31 724.203C1012.97 723.703 1013.62 723.203 1014.28 722.703C1014.97 722.172 1015.58 721.719 1016.11 721.344C1016.67 720.938 1017.03 720.688 1017.19 720.594C1017.31 720.5 1017.58 720.312 1017.98 720.031C1018.42 719.719 1018.89 719.391 1019.39 719.047C1019.92 718.703 1020.42 718.391 1020.89 718.109C1021.36 717.797 1021.7 717.562 1021.92 717.406C1022.39 717.094 1022.83 716.953 1023.23 716.984C1023.64 717.016 1023.97 717.172 1024.22 717.453C1024.5 717.703 1024.67 718.062 1024.73 718.531C1024.8 718.969 1024.73 719.469 1024.55 720.031C1023.8 721.438 1023.05 722.812 1022.3 724.156C1021.58 725.5 1020.91 726.859 1020.28 728.234C1019.69 729.578 1019.19 730.969 1018.78 732.406C1018.41 733.844 1018.2 735.375 1018.17 737C1018.02 737.094 1017.84 737.094 1017.66 737C1017.5 736.906 1017.34 736.781 1017.19 736.625C1017.03 736.469 1016.89 736.312 1016.77 736.156C1016.67 736 1016.62 735.922 1016.62 735.922ZM1030.12 736.484C1029.19 736.172 1028.47 735.703 1027.97 735.078C1027.5 734.422 1027.19 733.703 1027.03 732.922C1026.88 732.141 1026.84 731.328 1026.94 730.484C1027.06 729.609 1027.25 728.781 1027.5 728C1028.44 727 1029.48 725.859 1030.64 724.578C1031.83 723.266 1033.08 721.984 1034.39 720.734C1035.7 719.484 1037.06 718.328 1038.47 717.266C1039.91 716.172 1041.36 715.344 1042.83 714.781C1043.33 714.562 1043.72 714.578 1044 714.828C1044.31 715.047 1044.53 715.406 1044.66 715.906C1044.78 716.406 1044.83 716.984 1044.8 717.641C1044.8 718.297 1044.75 718.938 1044.66 719.562C1044.56 720.188 1044.44 720.75 1044.28 721.25C1044.12 721.75 1043.97 722.094 1043.81 722.281C1043.44 722.719 1042.7 723.234 1041.61 723.828C1040.55 724.422 1039.36 725.078 1038.05 725.797C1036.73 726.484 1035.42 727.203 1034.11 727.953C1032.8 728.703 1031.72 729.453 1030.88 730.203C1030.03 730.922 1029.53 731.641 1029.38 732.359C1029.22 733.078 1029.66 733.734 1030.69 734.328C1031.75 734.453 1033.03 734.406 1034.53 734.188C1036.06 733.938 1037.61 733.625 1039.17 733.25C1040.77 732.844 1042.3 732.438 1043.77 732.031C1045.23 731.594 1046.44 731.25 1047.38 731L1047.94 731.516C1047.25 732.422 1046.12 733.25 1044.56 734C1043 734.75 1041.31 735.375 1039.5 735.875C1037.69 736.344 1035.92 736.656 1034.2 736.812C1032.48 736.938 1031.12 736.828 1030.12 736.484ZM1041.33 718.578C1041.3 718.547 1041.06 718.688 1040.62 719C1040.19 719.281 1039.64 719.672 1038.98 720.172C1038.36 720.641 1037.67 721.172 1036.92 721.766C1036.2 722.328 1035.53 722.859 1034.91 723.359C1034.31 723.859 1033.81 724.297 1033.41 724.672C1033 725.016 1032.83 725.188 1032.89 725.188C1033.39 725.281 1034.03 725.219 1034.81 725C1035.62 724.75 1036.45 724.406 1037.3 723.969C1038.17 723.531 1039 723.047 1039.78 722.516C1040.56 721.953 1041.17 721.406 1041.61 720.875C1042.08 720.344 1042.31 719.875 1042.31 719.469C1042.34 719.062 1042.02 718.766 1041.33 718.578ZM1047.05 735.922C1046.8 735.547 1046.77 735.141 1046.95 734.703C1047.17 734.266 1047.47 733.906 1047.84 733.625C1048.22 733.312 1048.59 733.156 1048.97 733.156C1049.34 733.125 1049.59 733.344 1049.72 733.812C1049.84 734.281 1049.84 734.766 1049.72 735.266C1049.62 735.766 1049.44 736.172 1049.16 736.484C1048.91 736.797 1048.59 736.938 1048.22 736.906C1047.84 736.875 1047.45 736.547 1047.05 735.922ZM1049.72 722.703C1049.66 722.516 1049.69 722.047 1049.81 721.297C1049.94 720.547 1050.12 719.641 1050.38 718.578C1050.62 717.484 1050.94 716.281 1051.31 714.969C1051.69 713.656 1052.09 712.344 1052.53 711.031C1052.97 709.719 1053.42 708.453 1053.89 707.234C1054.36 706.016 1054.81 704.953 1055.25 704.047C1055.72 703.141 1056.16 702.453 1056.56 701.984C1057 701.516 1057.39 701.359 1057.73 701.516C1057.77 701.672 1057.7 702.203 1057.55 703.109C1057.42 703.984 1057.22 705.078 1056.94 706.391C1056.66 707.672 1056.31 709.094 1055.91 710.656C1055.53 712.219 1055.12 713.75 1054.69 715.25C1054.28 716.75 1053.84 718.156 1053.38 719.469C1052.91 720.75 1052.45 721.781 1052.02 722.562C1051.58 723.344 1051.16 723.781 1050.75 723.875C1050.34 723.969 1050 723.578 1049.72 722.703Z" fill="black"/>
</g>
<defs>
<clipPath id="clip0_402_4">
<rect width="1390" height="792" fill="white"/>
</clipPath>
</defs>
</svg>
